<svg width="36" height="36" viewBox="0 0 36 36" fill="none" xmlns="http://www.w3.org/2000/svg">
<path d="M0 18C0 8.05888 8.05888 0 18 0C27.9411 0 36 8.05888 36 18C36 27.9411 27.9411 36 18 36C8.05888 36 0 27.9411 0 18Z" fill="#0077B5"/>
<path d="M12.6281 28V15.423H8.46582V28H12.6281Z" fill="white"/>
<path d="M10.5394 13.0639C11.209 13.0639 11.8511 12.7979 12.3245 12.3245C12.7979 11.8511 13.0639 11.209 13.0639 10.5394C13.0639 9.142 11.9369 8 10.5394 8C9.86594 8 9.22002 8.26755 8.74379 8.74379C8.26755 9.22002 8 9.86594 8 10.5394C8 11.9369 9.142 13.0639 10.5394 13.0639Z" fill="white"/>
<path d="M28 28V20.0361C28 18.7369 27.4839 17.4909 26.5652 16.5722C25.6466 15.6536 24.4006 15.1375 23.1014 15.1375C21.8242 15.1375 20.3366 15.9189 19.6153 17.0909V15.423H15.423V28H19.6153V20.592C19.6153 19.435 20.547 18.4884 21.704 18.4884C22.2619 18.4884 22.797 18.71 23.1915 19.1045C23.586 19.499 23.8077 20.0341 23.8077 20.592V28H28Z" fill="white"/>
</svg>
