<svg width="20" height="16" viewBox="0 0 20 16" fill="none" xmlns="http://www.w3.org/2000/svg">
<g clip-path="url(#clip0_343_1370)">
<path d="M19.2857 0H0.714286C0.319196 0 0 0.325 0 0.727273V15.2727C0 15.675 0.319196 16 0.714286 16H19.2857C19.6808 16 20 15.675 20 15.2727V0.727273C20 0.325 19.6808 0 19.2857 0ZM18.3929 2.51818V14.3636H1.60714V2.51818L0.991071 2.02955L1.8683 0.881818L2.82366 1.63864H17.1786L18.1339 0.881818L19.0112 2.02955L18.3929 2.51818V2.51818ZM17.1786 1.63636L10 7.31818L2.82143 1.63636L1.86607 0.879545L0.988839 2.02727L1.60491 2.51591L9.22991 8.55227C9.44919 8.72573 9.71897 8.81989 9.99665 8.81989C10.2743 8.81989 10.5441 8.72573 10.7634 8.55227L18.3929 2.51818L19.0089 2.02955L18.1317 0.881818L17.1786 1.63636Z" fill="white"/>
</g>
<defs>
<clipPath id="clip0_343_1370">
<rect width="20" height="16" fill="white"/>
</clipPath>
</defs>
</svg>
