<svg width="194" height="75" viewBox="0 0 194 75" fill="none" xmlns="http://www.w3.org/2000/svg">
<g clip-path="url(#clip0_328_911)">
<path d="M16.2812 3.92917V32.4172C16.2812 32.4172 12.1339 32.4172 12.0782 30.3762C12.0225 28.3352 12.0782 3.92917 12.0782 3.92917H2.88278C2.88278 3.92917 -0.525491 -0.719204 0.935198 0.268461C2.39589 1.25613 26.1601 1.75005 27.4242 0.268166C28.6883 -1.21371 25.4766 3.92917 25.4766 3.92917H16.2812Z" fill="white"/>
<path d="M78.7079 39.3507C78.5773 37.9282 78.7079 30.5484 78.7079 30.5484C77.7956 31.2728 76.6987 31.8378 75.4172 32.2434C74.1356 32.649 72.7455 32.8518 71.2467 32.8518H70.2367C68.89 32.8518 67.6193 32.6852 66.4246 32.352C65.2299 32.0044 64.1873 31.5335 63.2967 30.9396C62.4062 30.3456 61.7002 29.6503 61.1789 28.8535C60.6793 28.0567 60.4295 27.2093 60.4295 26.3111V16.2718C60.4295 15.3737 60.6793 14.5262 61.1789 13.7294C61.7002 12.9326 62.4062 12.2373 63.2967 11.6433C64.1873 11.0494 65.2299 10.5858 66.4246 10.2526C67.6193 9.90493 68.89 9.73109 70.2367 9.73109H71.2467C72.8758 9.73109 74.3745 9.97736 75.743 10.4699C77.1114 10.948 78.2518 11.5999 79.1641 12.4256C80.9696 11.7904 82.7155 10.1657 82.7155 10.1657V41.3265C82.7155 41.3265 78.8386 40.7732 78.7079 39.3507ZM78.7079 16.1197C78.7079 15.5837 78.5559 15.0839 78.2518 14.6203C77.9477 14.1423 77.535 13.7294 77.0137 13.3817C76.4924 13.0341 75.8733 12.7588 75.1565 12.556C74.4614 12.3532 73.7121 12.2518 72.9084 12.2518H70.2367C69.433 12.2518 68.6727 12.3532 67.9559 12.556C67.2609 12.7588 66.6527 13.0341 66.1314 13.3817C65.61 13.7294 65.1973 14.1423 64.8932 14.6203C64.5892 15.0839 64.4371 15.5837 64.4371 16.1197V26.4632C64.4371 26.9992 64.5892 27.5062 64.8932 27.9843C65.1973 28.4479 65.61 28.8535 66.1314 29.2012C66.6527 29.5489 67.2609 29.8241 67.9559 30.0269C68.6727 30.2297 69.433 30.3311 70.2367 30.3311H72.9084C73.7121 30.3311 74.4614 30.2297 75.1565 30.0269C75.8733 29.8241 76.4924 29.5489 77.0137 29.2012C77.535 28.8535 77.9477 28.4479 78.2518 27.9843C78.5559 27.5062 78.7079 26.9992 78.7079 26.4632V16.1197Z" fill="white"/>
<path d="M109.009 30.4414C109.009 29.0008 109.009 16.1197 109.009 16.1197C109.009 15.5837 108.857 15.0839 108.553 14.6203C108.249 14.1423 107.836 13.7294 107.315 13.3817C106.793 13.0341 106.174 12.7588 105.458 12.556C104.763 12.3532 104.013 12.2518 103.209 12.2518H100.538C99.734 12.2518 98.9738 12.3532 98.257 12.556C97.5619 12.7588 96.9537 13.0341 96.4324 13.3817C95.9111 13.7294 95.4984 14.1423 95.1943 14.6203C94.8902 15.0839 94.7382 15.5837 94.7382 16.1197V32.4172C94.7382 32.4172 91.011 31.8819 90.7306 30.4414C90.4503 29.0008 90.7306 10.1657 90.7306 10.1657C91.8078 11.5216 92.7076 11.8103 94.2494 12.4256C95.1617 11.5999 96.3021 10.948 97.6705 10.4699C99.0607 9.97736 100.57 9.73109 102.199 9.73109H103.209C104.556 9.73109 105.827 9.90493 107.022 10.2526C108.216 10.5858 109.259 11.0494 110.149 11.6433C111.04 12.2373 111.735 12.9326 112.235 13.7294C112.756 14.5262 113.017 15.3737 113.017 16.2718V32.4172C113.017 32.4172 109.009 31.8819 109.009 30.4414Z" fill="white"/>
<path d="M162.114 12.7081C161.31 12.7081 159.576 12.8095 158.859 13.0123C158.164 13.2151 157.556 13.4904 157.035 13.8381C156.513 14.1857 156.101 14.5986 155.796 15.0767C155.492 15.5402 155.34 16.04 155.34 16.576V32.4172C155.34 32.4172 151.386 32.4172 151.333 30.4414C151.279 28.4655 151.333 10.1657 151.333 10.1657C152.331 11.5957 153.125 12.0562 154.852 12.4256C155.764 11.5999 156.904 10.948 158.273 10.4699C159.663 9.97736 161.611 9.82543 163.072 10.1477C164.532 10.4699 166.121 12.7081 166.121 12.7081H162.114Z" fill="white"/>
<path d="M193.428 26.7674C193.428 27.6656 193.157 28.4913 192.614 29.2446C192.071 29.9835 191.332 30.6209 190.398 31.1569C189.464 31.6929 188.378 32.113 187.14 32.4172C185.924 32.707 184.642 32.8518 183.295 32.8518H180.624C179.277 32.8518 177.985 32.6852 176.747 32.352C175.53 32.0044 174.455 31.5335 173.521 30.9396C172.609 30.3456 171.87 29.6503 171.305 28.8535C170.762 28.0567 170.491 27.2093 170.491 26.3111V25.8017C170.491 25.556 170.581 25.3194 170.745 25.1364C171.276 24.5433 172.46 23.227 172.495 23.227C172.528 23.227 173.606 24.1871 174.167 24.6885C174.378 24.8777 174.498 25.1478 174.498 25.4317V26.4632C174.498 26.9992 174.661 27.5062 174.987 27.9843C175.335 28.4479 175.791 28.8535 176.356 29.2012C176.92 29.5489 177.572 29.8241 178.31 30.0269C179.049 30.2297 179.82 30.3311 180.624 30.3311H183.295C184.099 30.3311 184.87 30.2515 185.609 30.0921C186.347 29.9328 186.999 29.7082 187.564 29.4185C188.15 29.1143 188.606 28.7521 188.932 28.332C189.28 27.9119 189.453 27.4338 189.453 26.8978C189.453 26.101 189.193 25.4491 188.671 24.9421C188.15 24.4351 187.455 24.015 186.586 23.6818C185.739 23.3341 184.762 23.0516 183.654 22.8343C182.568 22.6025 181.449 22.378 180.298 22.1607C179.147 21.9289 178.017 21.6681 176.909 21.3784C175.823 21.0886 174.846 20.712 173.977 20.2484C173.13 19.7704 172.446 19.1764 171.924 18.4666C171.403 17.7567 171.142 16.873 171.142 15.8155C171.142 14.9173 171.403 14.0988 171.924 13.36C172.446 12.6067 173.152 11.962 174.042 11.426C174.933 10.89 175.965 10.4772 177.138 10.1874C178.332 9.8832 179.603 9.73109 180.95 9.73109H183.295C184.642 9.73109 185.913 9.90493 187.108 10.2526C188.302 10.5858 189.345 11.0494 190.235 11.6433C191.126 12.2373 191.821 12.9326 192.321 13.7294C192.77 14.4157 193.025 15.204 193.088 15.9834C193.107 16.2249 193.015 16.4587 192.855 16.6405C192.334 17.2321 191.166 18.5497 191.099 18.5519C191.034 18.554 189.969 17.5907 189.419 17.0892C189.212 16.9006 189.095 16.6341 189.095 16.3542V16.1197C189.095 15.5837 188.943 15.0839 188.639 14.6203C188.335 14.1423 187.922 13.7294 187.401 13.3817C186.88 13.0341 186.26 12.7588 185.544 12.556C184.849 12.3532 184.099 12.2518 183.295 12.2518H180.95C180.146 12.2518 179.386 12.3314 178.669 12.4908C177.974 12.6502 177.366 12.8819 176.844 13.1862C176.323 13.4759 175.91 13.8308 175.606 14.2509C175.302 14.671 175.15 15.1491 175.15 15.6851C175.15 16.4529 175.411 17.0831 175.932 17.5756C176.453 18.0537 177.138 18.4593 177.985 18.7925C178.854 19.1257 179.831 19.4082 180.917 19.64C182.025 19.8573 183.143 20.0891 184.273 20.3353C185.424 20.5671 186.543 20.8351 187.629 21.1393C188.737 21.4436 189.714 21.8347 190.561 22.3128C191.43 22.7908 192.125 23.392 192.646 24.1164C193.168 24.8262 193.428 25.7099 193.428 26.7674Z" fill="white"/>
<path d="M52.4144 26.3111C52.4144 27.2093 52.1538 28.0567 51.6325 28.8535C51.1329 29.6503 50.4378 30.3456 49.5472 30.9396C48.6567 31.5335 47.6141 32.0044 46.4194 32.352C45.2247 32.6852 43.954 32.8518 42.6073 32.8518H39.9356C38.5889 32.8518 37.3182 32.6852 36.1235 32.352C34.9289 32.0044 33.8863 31.5335 32.9957 30.9396C32.1051 30.3456 31.3992 29.6503 30.8779 28.8535C30.3783 28.0567 30.1285 27.2093 30.1285 26.3111V16.2718C30.1285 15.3737 30.3783 14.5262 30.8779 13.7294C31.3992 12.9326 32.1051 12.2373 32.9957 11.6433C33.8862 11.0494 34.9289 10.5858 36.1235 10.2526C37.3182 9.90493 38.5889 9.73109 39.9356 9.73109H42.6073C43.954 9.73109 45.2247 9.90493 46.4194 10.2526C47.6141 10.5858 48.6567 11.0494 49.5472 11.6433C50.4378 12.2373 51.1329 12.9326 51.6325 13.7294C52.1538 14.5262 52.4144 15.3737 52.4144 16.2718C52.2513 19.1913 52.213 20.5459 52.4144 21.5088C49.8439 21.1405 33.9465 21.5088 33.9465 21.5088V26.4632C33.9465 26.9992 34.2881 27.5062 34.5922 27.9843C34.8963 28.4479 35.309 28.8535 35.8303 29.2012C36.3516 29.5489 36.9598 29.8241 37.6549 30.0269C38.3717 30.2297 39.1319 30.3311 39.9356 30.3311H42.6073C43.411 30.3311 44.1604 30.2297 44.8555 30.0269C45.5723 29.8241 46.1913 29.5489 46.7126 29.2012C47.2339 28.8535 47.6466 28.4479 47.9507 27.9843C48.2548 27.5062 48.4069 26.9992 48.4069 26.4632V25.8376C48.4069 25.5707 48.5133 25.3152 48.702 25.1292L50.4107 23.4443L52.1194 25.1292C52.308 25.3152 52.4144 25.5707 52.4144 25.8376V26.3111ZM48.4069 16.1197C48.4069 15.5837 48.2548 15.0839 47.9507 14.6203C47.6466 14.1423 47.2339 13.7294 46.7126 13.3817C46.1913 13.0341 45.5723 12.7588 44.8555 12.556C44.1604 12.3532 43.411 12.2518 42.6073 12.2518H39.9356C39.1319 12.2518 38.3717 12.3532 37.6549 12.556C36.9598 12.7588 36.3516 13.0341 35.8303 13.3817C35.309 13.7294 34.8963 14.1423 34.5922 14.6203C34.2881 15.0839 33.9465 15.7358 33.9465 16.2718V19.4227H48.4069V16.1197Z" fill="white"/>
<path d="M143.318 26.3111C143.318 27.2093 143.057 28.0567 142.536 28.8535C142.036 29.6503 141.341 30.3456 140.45 30.9396C139.56 31.5335 138.517 32.0044 137.323 32.352C136.128 32.6852 134.857 32.8518 133.511 32.8518H130.839C129.492 32.8518 128.221 32.6852 127.027 32.352C125.832 32.0044 124.789 31.5335 123.899 30.9396C123.008 30.3456 122.302 29.6503 121.781 28.8535C121.281 28.0567 121.032 27.2093 121.032 26.3111V16.2718C121.032 15.3737 121.281 14.5262 121.781 13.7294C122.302 12.9326 123.008 12.2373 123.899 11.6433C124.789 11.0494 125.832 10.5858 127.027 10.2526C128.221 9.90493 129.492 9.73109 130.839 9.73109H133.511C134.857 9.73109 136.128 9.90493 137.323 10.2526C138.517 10.5858 139.56 11.0494 140.45 11.6433C141.341 12.2373 142.036 12.9326 142.536 13.7294C143.057 14.5262 143.318 15.3737 143.318 16.2718C143.154 19.1913 143.116 20.5459 143.318 21.5088H125.039V26.4632C125.039 26.9992 125.191 27.5062 125.495 27.9843C125.799 28.4479 126.212 28.8535 126.734 29.2012C127.255 29.5489 127.863 29.8241 128.558 30.0269C129.275 30.2297 130.035 30.3311 130.839 30.3311H133.511C134.314 30.3311 135.064 30.2297 135.759 30.0269C136.475 29.8241 137.095 29.5489 137.616 29.2012C138.137 28.8535 138.55 28.4479 138.854 27.9843C139.158 27.5062 139.31 26.9992 139.31 26.4632V25.8376C139.31 25.5707 139.417 25.3152 139.605 25.1292L141.314 23.4443L143.023 25.1292C143.211 25.3152 143.318 25.5707 143.318 25.8376V26.3111ZM139.31 16.1197C139.31 15.5837 139.158 15.0839 138.854 14.6203C138.55 14.1423 138.137 13.7294 137.616 13.3817C137.095 13.0341 136.475 12.7588 135.759 12.556C135.064 12.3532 134.314 12.2518 133.511 12.2518H130.839C130.035 12.2518 129.275 12.3532 128.558 12.556C127.863 12.7588 127.255 13.0341 126.734 13.3817C126.212 13.7294 125.799 14.1423 125.495 14.6203C125.191 15.0839 125.039 15.5837 125.039 16.1197V19.4227H139.31V16.1197Z" fill="white"/>
<mask id="mask0_328_911" style="mask-type:alpha" maskUnits="userSpaceOnUse" x="86" y="50" width="51" height="25">
<rect x="1.5" y="-1.5" width="47.4082" height="21.4898" rx="10.7449" transform="matrix(1 0 0 -1 86.3877 72)" stroke="black" stroke-width="3"/>
</mask>
<g mask="url(#mask0_328_911)">
<rect width="55.309" height="14.966" transform="matrix(1 0 0 -1 81.4873 75)" fill="white"/>
<path d="M108.938 62.7549H136.796V50.51H117.938C112.968 50.51 108.938 54.5394 108.938 59.51V62.7549Z" fill="white"/>
</g>
<mask id="mask1_328_911" style="mask-type:alpha" maskUnits="userSpaceOnUse" x="57" y="50" width="51" height="25">
<rect x="-1.5" y="1.5" width="47.4082" height="21.4898" rx="10.7449" transform="matrix(-1 0 0 1 104.612 50.5103)" stroke="black" stroke-width="3"/>
</mask>
<g mask="url(#mask1_328_911)">
<rect width="55.309" height="14.966" transform="matrix(-1 0 0 1 112.513 50.5103)" fill="white"/>
<path d="M85.0615 62.7554H57.2044V75.0003H76.0615C81.0321 75.0003 85.0615 70.9708 85.0615 66.0003V62.7554Z" fill="white"/>
</g>
</g>
<defs>
<clipPath id="clip0_328_911">
<rect width="192.857" height="75" fill="white" transform="translate(0.571289)"/>
</clipPath>
</defs>
</svg>
