<svg width="188" height="283" viewBox="0 0 188 283" fill="none" xmlns="http://www.w3.org/2000/svg">
<path d="M84.9364 15.2472H61.3852V63.6794H38.873V15.2472H15.2064V0H84.9364V15.2472Z" fill="#F2F2F5"/>
<path d="M163.097 48.4322V63.6794H104.681V0H162.058V15.2472H127.193V24.2161H156.978V38.387H127.193V48.4322H163.097Z" fill="#F2F2F5"/>
<path d="M41.4455 132.329C35.2114 132.329 29.5544 131.432 24.4748 129.638C19.3951 127.845 15.0081 125.423 11.3138 122.374C7.69647 119.264 4.88726 115.796 2.88618 111.97C0.962059 108.083 0 104.077 0 99.9513C0 95.706 1.03902 91.67 3.11707 87.8432C5.19512 83.9567 8.08129 80.5186 11.7756 77.529C15.5469 74.5393 19.9723 72.1775 25.052 70.4435C30.2086 68.6497 35.8271 67.7528 41.9073 67.7528C48.1414 67.7528 53.7983 68.6796 58.878 70.5332C63.9577 72.3868 68.3062 74.8682 71.9235 77.9774C75.5409 81.0866 78.3116 84.5845 80.2357 88.471C82.2368 92.2978 83.2373 96.2441 83.2373 100.31C83.2373 104.496 82.1983 108.502 80.1203 112.328C78.1192 116.155 75.233 119.593 71.4617 122.643C67.7674 125.632 63.3804 127.994 58.3008 129.728C53.2211 131.462 47.6027 132.329 41.4455 132.329ZM41.6764 116.813C44.9089 116.813 47.7181 116.335 50.104 115.378C52.4899 114.421 54.414 113.136 55.8764 111.521C57.4157 109.907 58.5317 108.113 59.2243 106.14C59.994 104.107 60.3788 102.044 60.3788 99.9513C60.3788 97.7987 59.994 95.7359 59.2243 93.7627C58.4547 91.7298 57.3002 89.936 55.7609 88.3814C54.2216 86.8267 52.259 85.601 49.8731 84.7041C47.4872 83.7474 44.7165 83.2691 41.5609 83.2691C38.3284 83.2691 35.5192 83.7474 33.1333 84.7041C30.8244 85.6608 28.9002 86.9463 27.361 88.5607C25.8217 90.1751 24.6672 91.9988 23.8975 94.0318C23.2049 96.005 22.8585 98.0379 22.8585 100.131C22.8585 102.283 23.2433 104.346 24.013 106.319C24.7826 108.292 25.9371 110.086 27.4764 111.701C29.0157 113.255 30.9398 114.511 33.2488 115.468C35.6347 116.364 38.4439 116.813 41.6764 116.813ZM32.4406 104.974H53.452L85.3154 131.881H64.304L32.4406 104.974Z" fill="#F2F2F5"/>
<path d="M126.836 100.579V131.881H104.324V68.2013H121.871L154.774 100.579V68.2013H177.286V131.881H159.392L126.836 100.579Z" fill="#F2F2F5"/>
<path d="M77.1804 184.835V200.082H18.7642V136.403H76.1414V151.65H41.2764V160.619H71.0617V174.79H41.2764V184.835H77.1804Z" fill="#F2F2F5"/>
<path d="M99.1938 200.082V136.403H136.83C140.832 136.403 144.526 137.03 147.912 138.286C151.299 139.542 154.224 141.246 156.686 143.398C159.149 145.491 161.035 147.853 162.343 150.484C163.729 153.115 164.421 155.775 164.421 158.466C164.421 160.918 163.96 163.279 163.036 165.552C162.112 167.824 160.766 169.916 158.995 171.83C157.225 173.683 155.109 175.298 152.646 176.673L169.963 200.082H145.257L130.826 180.53H121.706V200.082H99.1938ZM121.706 165.282H135.906C136.83 165.282 137.715 165.013 138.561 164.475C139.408 163.937 140.101 163.16 140.639 162.143C141.255 161.127 141.563 159.901 141.563 158.466C141.563 156.971 141.217 155.746 140.524 154.789C139.908 153.772 139.1 152.995 138.099 152.457C137.176 151.919 136.252 151.65 135.329 151.65H121.706V165.282Z" fill="#F2F2F5"/>
<path d="M59.0333 222.609C59.0333 222.609 58.3791 222.31 57.0707 221.712C55.7623 221.114 54.0306 220.456 51.8756 219.739C49.7206 218.962 47.3732 218.274 44.8333 217.676C42.2935 217.078 39.7921 216.779 37.3293 216.779C35.4052 216.779 33.8274 217.018 32.5959 217.497C31.3645 217.975 30.7488 218.782 30.7488 219.918C30.7488 220.995 31.3645 221.861 32.5959 222.519C33.8274 223.177 35.5591 223.775 37.7911 224.313C40.1 224.851 42.8322 225.509 45.9878 226.286C51.0675 227.482 55.4545 228.857 59.1488 230.412C62.8431 231.966 65.6908 233.97 67.6918 236.421C69.6929 238.813 70.6935 242.012 70.6935 246.018C70.6935 249.845 69.8084 253.073 68.0382 255.704C66.268 258.275 63.8821 260.338 60.8805 261.893C57.8788 263.447 54.5309 264.584 50.8366 265.301C47.1423 265.959 43.371 266.288 39.5228 266.288C35.5976 266.288 31.48 265.989 27.1699 265.391C22.9369 264.733 18.8193 263.866 14.8171 262.79C10.8149 261.654 7.15911 260.338 3.84962 258.843L13.5472 243.507C13.5472 243.507 14.3168 243.865 15.8561 244.583C17.3954 245.3 19.435 246.108 21.9748 247.004C24.5146 247.901 27.3239 248.709 30.4024 249.426C33.558 250.144 36.7136 250.502 39.8691 250.502C42.332 250.502 44.0252 250.263 44.9488 249.785C45.9493 249.247 46.4496 248.559 46.4496 247.722C46.4496 246.466 45.603 245.51 43.9097 244.852C42.2165 244.134 39.9846 243.477 37.2138 242.879C34.5201 242.221 31.5184 241.474 28.209 240.636C23.4371 239.381 19.5119 237.976 16.4334 236.421C13.3548 234.807 11.0843 232.923 9.62198 230.771C8.15965 228.558 7.42848 225.898 7.42848 222.788C7.42848 218.065 8.85233 214.118 11.7 210.949C14.5477 207.78 18.2805 205.389 22.8984 203.774C27.5932 202.1 32.6344 201.263 38.022 201.263C42.0241 201.263 45.8724 201.652 49.5667 202.429C53.3379 203.146 56.8398 204.043 60.0723 205.119C63.3818 206.196 66.268 207.212 68.7309 208.169L59.0333 222.609Z" fill="#F2F2F5"/>
<mask id="mask0_350_1490" style="mask-type:alpha" maskUnits="userSpaceOnUse" x="113" y="200" width="68" height="53">
<rect y="-6.13502" width="60.2438" height="23.3811" rx="11.6905" transform="matrix(0.789693 -0.613502 -0.789693 -0.613502 127.685 248.152)" stroke="black" stroke-width="10"/>
</mask>
<g mask="url(#mask0_350_1490)">
<rect width="77.073" height="20.3995" transform="matrix(0.789693 -0.613502 -0.789693 -0.613502 127.137 262.24)" fill="#F2F2F5"/>
<path d="M144.165 228.532L174.82 204.716L161.64 194.476L138.092 212.77C134.167 215.82 134.167 220.764 138.092 223.813L144.165 228.532Z" fill="#F2F2F5"/>
</g>
<mask id="mask1_350_1490" style="mask-type:alpha" maskUnits="userSpaceOnUse" x="81" y="225" width="68" height="53">
<rect y="6.13502" width="60.2438" height="23.3811" rx="11.6905" transform="matrix(-0.789693 0.613502 0.789693 0.613502 124.68 221.797)" stroke="black" stroke-width="10"/>
</mask>
<g mask="url(#mask1_350_1490)">
<rect width="77.073" height="20.3995" transform="matrix(-0.789693 0.613502 0.789693 0.613502 134.917 215.236)" fill="#F2F2F5"/>
<path d="M117.889 248.945L87.2336 272.76L100.414 283L123.962 264.706C127.887 261.657 127.887 256.712 123.962 253.663L117.889 248.945Z" fill="#F2F2F5"/>
</g>
</svg>
