<svg width="50" height="19" viewBox="0 0 50 19" fill="none" xmlns="http://www.w3.org/2000/svg">
<mask id="mask0_351_1502" style="mask-type:alpha" maskUnits="userSpaceOnUse" x="18" y="0" width="32" height="19">
<rect x="1.5" y="-1.5" width="28.6667" height="16" rx="8" transform="matrix(1 0 0 -1 18.3335 16)" stroke="black" stroke-width="3"/>
</mask>
<g mask="url(#mask0_351_1502)">
<rect width="34.7454" height="11.6111" transform="matrix(1 0 0 -1 15.2549 19)" fill="white"/>
<path d="M32.5 9.5H50V0H41.5C36.5294 0 32.5 4.02944 32.5 9V9.5Z" fill="white"/>
</g>
<mask id="mask1_351_1502" style="mask-type:alpha" maskUnits="userSpaceOnUse" x="0" y="0" width="32" height="19">
<rect x="-1.5" y="1.5" width="28.6667" height="16" rx="8" transform="matrix(-1 0 0 1 28.6665 0)" stroke="black" stroke-width="3"/>
</mask>
<g mask="url(#mask1_351_1502)">
<rect width="34.7454" height="11.6111" transform="matrix(-1 0 0 1 34.7451 0)" fill="white"/>
<path d="M17.5 9.5H0V19H8.5C13.4706 19 17.5 14.9706 17.5 10V9.5Z" fill="white"/>
</g>
</svg>
