<svg width="16" height="16" viewBox="0 0 16 16" fill="none" xmlns="http://www.w3.org/2000/svg">
<path fill-rule="evenodd" clip-rule="evenodd" d="M1.88547 0.511147C2.06045 0.336436 2.27055 0.200905 2.50187 0.113537C2.73318 0.0261686 2.98043 -0.0110424 3.22721 0.00436978C3.47399 0.019782 3.71469 0.0874655 3.93333 0.202935C4.15198 0.318404 4.34359 0.479023 4.49547 0.674147L6.29047 2.98015C6.61947 3.40315 6.73547 3.95415 6.60547 4.47415L6.05847 6.66415C6.03019 6.77758 6.03172 6.89639 6.06291 7.00906C6.0941 7.12172 6.15389 7.22441 6.23647 7.30715L8.69347 9.76415C8.77631 9.8469 8.87916 9.90679 8.99202 9.93798C9.10488 9.96918 9.22389 9.97061 9.33747 9.94215L11.5265 9.39515C11.7831 9.33099 12.0509 9.326 12.3098 9.38057C12.5686 9.43514 12.8116 9.54784 13.0205 9.71015L15.3265 11.5041C16.1555 12.1491 16.2315 13.3741 15.4895 14.1151L14.4555 15.1491C13.7155 15.8891 12.6095 16.2141 11.5785 15.8511C8.93965 14.9227 6.54374 13.412 4.56847 11.4311C2.58776 9.45616 1.07708 7.06061 0.148471 4.42215C-0.213529 3.39215 0.111471 2.28515 0.851471 1.54515L1.88547 0.511147Z" fill="white"/>
</svg>
