<svg width="574" height="333" viewBox="0 0 574 333" fill="none" xmlns="http://www.w3.org/2000/svg">
<g clip-path="url(#clip0_335_1218)">
<path d="M543.307 200.629C523.036 253.16 484.925 299.181 431.99 319.407C425.105 322.033 418.075 324.262 410.934 326.08C373.167 335.718 331.85 332.365 297.035 314.805C282.259 307.346 268.786 297.49 253.956 290.138C239.127 282.786 222.192 277.974 206.052 281.603C192.154 284.728 180.429 293.682 168.623 301.659C140.793 320.465 107.33 335.347 74.375 328.888C59.211 325.92 44.279 317.697 37.2367 303.953C21.6713 273.568 51.0269 237.442 45.0818 203.839C41.2774 182.332 23.9013 166.227 13.0992 147.247C-5.3874 114.781 -3.20202 71.6566 18.4735 41.2359C40.149 10.8151 80.164 -5.32158 116.852 1.57946C161.59 9.9982 195.414 47.8913 238.917 61.3006C266.123 69.6792 295.662 67.1794 321.645 56.1449C363.627 38.3121 421.304 10.9624 468.548 15.4173C493.672 17.7875 518.313 28.9471 534.895 48.0029C555.857 72.0584 562.141 106.211 558.644 137.931C556.245 159.403 551.089 180.476 543.307 200.629Z" fill="url(#paint0_linear_335_1218)"/>
<path d="M556.793 242.179C555.861 242.178 554.934 242.066 554.028 241.845C551.165 241.14 548.681 239.369 547.08 236.893C545.478 234.416 544.881 231.421 545.412 228.519C545.938 225.617 547.557 223.027 549.93 221.277C552.302 219.528 555.255 218.751 558.18 219.105C561.106 219.46 563.787 220.918 565.673 223.184C567.564 225.449 568.514 228.351 568.34 231.295C568.162 234.24 566.868 237.006 564.723 239.029C562.578 241.052 559.741 242.179 556.793 242.179ZM556.793 224.244C555.259 224.25 553.783 224.817 552.637 225.837C551.49 226.858 550.759 228.263 550.576 229.787C550.398 231.311 550.777 232.848 551.651 234.111C552.521 235.373 553.823 236.272 555.313 236.64C556.173 236.847 557.07 236.87 557.944 236.705C558.814 236.542 559.639 236.195 560.366 235.688C561.093 235.181 561.708 234.526 562.163 233.765C562.618 233.005 562.913 232.156 563.015 231.275C563.122 230.394 563.037 229.501 562.774 228.654C562.511 227.807 562.07 227.026 561.481 226.362C560.892 225.698 560.174 225.166 559.362 224.8C558.555 224.435 557.681 224.246 556.793 224.244Z" fill="#E7F6FF"/>
<path d="M546.237 254.458C546.892 251.744 545.229 249.01 542.513 248.352C539.801 247.693 537.071 249.36 536.411 252.075C535.756 254.789 537.419 257.523 540.131 258.182C542.847 258.84 545.577 257.173 546.237 254.458Z" fill="#E7F6FF"/>
<path d="M24.6148 241.076C21.5514 241.009 18.6381 239.735 16.5073 237.532C14.3765 235.328 13.2001 232.372 13.2336 229.306C13.2671 226.239 14.5077 223.309 16.6861 221.153C18.8645 218.996 21.8049 217.787 24.869 217.787C27.9331 217.787 30.8735 218.996 33.0519 221.153C35.2303 223.309 36.4709 226.239 36.5044 229.306C36.5379 232.372 35.3615 235.328 33.2307 237.532C31.0999 239.735 28.1866 241.009 25.1232 241.076H24.6148ZM24.6148 223.145H24.3516C22.6972 223.181 21.1236 223.868 19.9726 225.058C18.8216 226.248 18.186 227.845 18.2039 229.501C18.2218 231.157 18.8918 232.739 20.0683 233.904C21.2447 235.069 22.8328 235.722 24.4877 235.722C26.1425 235.722 27.7306 235.069 28.9071 233.904C30.0836 232.739 30.7535 231.157 30.7714 229.501C30.7894 227.845 30.1538 226.248 29.0028 225.058C27.8517 223.868 26.2782 223.181 24.6237 223.145H24.6148Z" fill="#E7F6FF"/>
<path d="M16.3189 260.619C19.1071 260.499 21.2699 258.139 21.1496 255.349C21.0293 252.558 18.6715 250.393 15.8833 250.514C13.0952 250.634 10.9324 252.994 11.0526 255.785C11.1729 258.575 13.5307 260.74 16.3189 260.619Z" fill="#E7F6FF"/>
<path d="M316.249 52.7877C313.472 52.7899 310.786 51.7976 308.678 49.9898C306.568 48.1819 305.176 45.6782 304.752 42.9317C304.328 40.1852 304.9 37.3775 306.366 35.0168C307.831 32.6562 310.092 30.8984 312.74 30.0618C315.387 29.2252 318.247 29.365 320.801 30.4559C323.355 31.5468 325.434 33.5167 326.662 36.0091C327.89 38.5014 328.186 41.3516 327.497 44.0436C326.807 46.7357 325.178 49.0917 322.903 50.6853C320.952 52.0512 318.63 52.785 316.249 52.7877ZM316.213 34.8609C314.588 34.8592 313.026 35.4851 311.851 36.6082C310.676 37.7313 309.979 39.2648 309.907 40.8892C309.834 42.5136 310.39 44.1035 311.459 45.3278C312.529 46.5518 314.029 47.3155 315.647 47.4597C317.265 47.6039 318.877 47.1178 320.146 46.1018C321.414 45.0863 322.243 43.6198 322.458 42.0081C322.673 40.3964 322.258 38.7637 321.3 37.4505C320.342 36.1374 318.914 35.2449 317.315 34.9591C316.951 34.8942 316.582 34.8614 316.213 34.8609Z" fill="#E7F6FF"/>
<path d="M292.524 52.152C294.809 50.5482 295.362 47.3945 293.76 45.1072C292.157 42.8205 289.006 42.2667 286.721 43.8703C284.436 45.4742 283.883 48.6278 285.485 50.9151C287.087 53.2019 290.239 53.7559 292.524 52.152Z" fill="#E7F6FF"/>
<path d="M573.554 112.781C573.554 107.873 571.605 103.166 568.14 99.6951C564.67 96.2241 559.969 94.2743 555.063 94.2743C554.653 94.2743 554.247 94.2743 553.846 94.3144C553.872 93.9127 553.886 93.5065 553.886 93.0958C553.886 90.4657 553.324 87.8656 552.24 85.4694C551.156 83.0728 549.577 80.9351 547.602 79.1986C545.626 77.4622 543.307 76.1668 540.791 75.399C538.28 74.6308 535.631 74.4081 533.026 74.7451C530.417 75.0826 527.915 75.9718 525.676 77.3537C523.442 78.7362 521.524 80.5797 520.057 82.7612C518.589 84.9431 517.604 87.4129 517.162 90.006C516.725 92.5994 516.841 95.2567 517.51 97.8007C515.276 96.179 512.707 95.0782 509.99 94.5796C507.274 94.081 504.482 94.1975 501.82 94.9202C499.153 95.6424 496.686 96.953 494.59 98.7555C492.498 100.558 490.839 102.806 489.724 105.336C488.614 107.865 488.083 110.611 488.172 113.373C488.261 116.135 488.966 118.841 490.237 121.295C491.504 123.748 493.306 125.886 495.509 127.551C497.712 129.216 500.259 130.367 502.966 130.918C504.072 133.849 505.901 136.453 508.287 138.483C510.668 140.513 513.532 141.905 516.596 142.527C519.664 143.148 522.844 142.981 525.828 142.039C528.812 141.096 531.51 139.411 533.668 137.14C535.876 138.808 538.427 139.959 541.139 140.508C543.851 141.057 546.647 140.991 549.328 140.314C552.012 139.638 554.506 138.367 556.633 136.598C558.76 134.828 560.46 132.603 561.615 130.087C565.125 128.756 568.144 126.387 570.281 123.296C572.412 120.205 573.554 116.538 573.554 112.781Z" fill="white"/>
<path d="M85.3865 68.2954C85.3887 65.8639 84.9124 63.4557 83.9847 61.2086C83.0566 58.9615 81.6954 56.9193 79.9783 55.199C78.2617 53.4786 76.223 52.1136 73.9788 51.1825C71.7349 50.2509 69.3292 49.771 66.8999 49.7706C66.4896 49.7706 66.0837 49.7706 65.6823 49.8107C65.7091 49.409 65.7224 49.0028 65.7224 48.5921C65.722 45.962 65.1614 43.3618 64.0776 40.9654C62.9943 38.569 61.4128 36.4314 59.4388 34.6949C57.4648 32.9584 55.1434 31.663 52.6297 30.8951C50.1161 30.1272 47.4677 29.9044 44.8613 30.2415C42.255 30.5786 39.7503 31.4679 37.5144 32.8501C35.2784 34.2324 33.3625 36.0758 31.8944 38.2575C30.4263 40.4392 29.4397 42.909 29.0004 45.5023C28.5611 48.0957 28.6792 50.753 29.3468 53.297C27.112 51.6748 24.5426 50.574 21.8273 50.0759C19.112 49.5773 16.3196 49.6938 13.655 50.416C10.9905 51.1387 8.5214 52.4493 6.429 54.2518C4.33659 56.0543 2.67395 58.3027 1.56309 60.8319C0.45224 63.3615 -0.0786433 66.1077 0.0094091 68.8694C0.0974614 71.6307 0.802215 74.3376 2.07195 76.7909C3.34168 79.2446 5.14417 81.3824 7.34713 83.0474C9.5501 84.7124 12.0976 85.8631 14.8028 86.414C15.9083 89.3431 17.7384 91.9437 20.1216 93.9721C22.5047 96.0009 25.3632 97.3909 28.4294 98.0127C31.4956 98.6345 34.6693 98.4671 37.6534 97.527C40.6376 96.587 43.3345 94.9041 45.492 92.6365C47.6992 94.3042 50.2521 95.455 52.9624 96.004C55.6728 96.5535 58.4718 96.4874 61.1532 95.8103C63.8345 95.1336 66.3303 93.8636 68.4564 92.0937C70.5825 90.3238 72.2849 88.0995 73.4382 85.5837C76.9464 84.2548 79.9681 81.8894 82.1022 78.8018C84.2363 75.7142 85.3816 72.0499 85.3865 68.2954Z" fill="white"/>
<path d="M425.563 331.63H159.525V325.827H425.563C426.332 325.827 427.069 326.132 427.613 326.676C428.156 327.22 428.462 327.959 428.462 328.728C428.462 329.498 428.156 330.236 427.613 330.78C427.069 331.324 426.332 331.63 425.563 331.63Z" fill="#426572"/>
<path d="M147.625 331.63H131.36C130.591 331.63 129.854 331.324 129.31 330.78C128.766 330.236 128.461 329.498 128.461 328.728C128.461 327.959 128.766 327.22 129.31 326.676C129.854 326.132 130.591 325.827 131.36 325.827H147.625C148.394 325.827 149.132 326.132 149.675 326.676C150.219 327.22 150.524 327.959 150.524 328.728C150.524 329.498 150.219 330.236 149.675 330.78C149.132 331.324 148.394 331.63 147.625 331.63Z" fill="#426572"/>
<path d="M120.803 331.63H115.621C114.852 331.63 114.115 331.324 113.571 330.78C113.027 330.236 112.722 329.498 112.722 328.728C112.722 327.959 113.027 327.22 113.571 326.676C114.115 326.132 114.852 325.827 115.621 325.827H120.803C121.572 325.827 122.309 326.132 122.853 326.676C123.397 327.22 123.702 327.959 123.702 328.728C123.702 329.498 123.397 330.236 122.853 330.78C122.309 331.324 121.572 331.63 120.803 331.63Z" fill="#426572"/>
<path d="M518.848 331.63H437.079V325.827H518.848C519.615 325.827 520.355 326.132 520.9 326.676C521.444 327.22 521.747 327.959 521.747 328.728C521.747 329.498 521.444 330.236 520.9 330.78C520.355 331.324 519.615 331.63 518.848 331.63Z" fill="#426572"/>
<path d="M100.796 331.63H19.022V325.827H100.796C101.565 325.827 102.302 326.132 102.846 326.676C103.389 327.22 103.695 327.959 103.695 328.728C103.695 329.498 103.389 330.236 102.846 330.78C102.302 331.324 101.565 331.63 100.796 331.63Z" fill="#426572"/>
<path d="M126.708 105.149H424.555C429.93 105.149 435.086 107.285 438.888 111.089C442.69 114.893 444.828 120.052 444.83 125.433V318.385H106.433V125.433C106.435 120.052 108.573 114.893 112.375 111.089C116.177 107.285 121.333 105.149 126.708 105.149Z" fill="#EBF0F9"/>
<path d="M433.069 119.946H119.537V299.212H433.069V119.946Z" fill="#637F91"/>
<path d="M117.186 298.878H434.402C434.402 300.301 433.84 301.666 432.837 302.675C431.834 303.684 430.472 304.254 429.051 304.262H122.56C121.134 304.262 119.766 303.694 118.757 302.684C117.749 301.675 117.182 300.306 117.182 298.878H117.186Z" fill="white"/>
<g opacity="0.5">
<path opacity="0.5" d="M213.227 119.276L166.348 300.221H142.742L189.621 119.276H213.227Z" fill="#A7BCD5"/>
<path opacity="0.5" d="M273.397 119.276L226.522 300.221H177.017L223.896 119.276H273.397Z" fill="#A7BCD5"/>
</g>
<path d="M447.506 321.063H103.757V116.782C103.762 112.987 105.27 109.35 107.951 106.667C110.631 103.984 114.266 102.475 118.056 102.471H433.207C436.998 102.475 440.632 103.984 443.313 106.667C445.993 109.35 447.502 112.987 447.506 116.782V321.063ZM109.109 315.707H442.154V116.782C442.152 114.407 441.209 112.131 439.531 110.452C437.854 108.774 435.58 107.83 433.207 107.827H118.056C115.684 107.83 113.41 108.774 111.732 110.452C110.055 112.131 109.112 114.407 109.109 116.782V315.707Z" fill="#426572"/>
<path d="M63.7554 311.997H496.583V313.421C496.583 318.039 494.75 322.466 491.49 325.731C488.225 328.996 483.801 330.83 479.19 330.83H81.1493C76.5363 330.83 72.112 328.996 68.85 325.731C65.588 322.466 63.7554 318.039 63.7554 313.421V311.997Z" fill="#EBF0F9"/>
<path opacity="0.5" d="M494.367 321.077C493.417 323.553 491.736 325.683 489.55 327.184C487.365 328.685 484.774 329.488 482.124 329.487H75.5165C72.8672 329.487 70.28 328.683 68.0959 327.181C65.9119 325.68 64.234 323.552 63.2827 321.077H494.367Z" fill="#A7BCD5"/>
<path d="M477.169 332.834H79.1334C73.8122 332.828 68.7109 330.71 64.9484 326.944C61.1855 323.178 59.0693 318.072 59.0635 312.747V308.645H497.244V312.747C497.239 318.073 495.121 323.18 491.356 326.945C487.592 330.711 482.49 332.829 477.169 332.834ZM64.4645 314.001C64.7785 317.677 66.4595 321.102 69.1747 323.597C71.8904 326.093 75.4423 327.477 79.129 327.477H477.169C480.858 327.477 484.408 326.093 487.124 323.597C489.84 321.102 491.521 317.677 491.834 314.001H64.4645Z" fill="#426572"/>
<path d="M435.072 300.882H116.183V117.267H435.072V300.882ZM121.535 295.525H429.72V122.624H121.535V295.525Z" fill="#426572"/>
<path d="M385.142 62.3991V298.204H171.415V62.3991C171.423 61.3363 171.849 60.319 172.6 59.5673C173.351 58.8156 174.367 58.3897 175.429 58.3817H381.11C381.353 58.3817 381.594 58.4045 381.833 58.4487C382.757 58.6196 383.593 59.1075 384.197 59.8284C384.801 60.5493 385.135 61.4586 385.142 62.3991Z" fill="white"/>
<path d="M174.778 77.8711H385.815V63.6851L381.779 58.3643H196.957H178.81L172.088 63.6851V77.8711H174.778Z" fill="#E2F2FF"/>
<path d="M388.491 300.882H169.413V62.3991C169.42 60.6256 170.127 58.9267 171.38 57.6724C172.633 56.418 174.331 55.7105 176.103 55.7034H381.775C383.547 55.7105 385.245 56.418 386.497 57.6724C387.751 58.9267 388.458 60.6256 388.465 62.3991L388.491 300.882ZM174.765 295.526H383.139V62.3991C383.131 62.0469 382.987 61.7112 382.738 61.4621C382.489 61.213 382.153 61.0689 381.802 61.0599H176.12C175.769 61.0689 175.433 61.213 175.184 61.4621C174.935 61.7112 174.791 62.0469 174.782 62.3991L174.765 295.526Z" fill="#426572"/>
<path d="M372.668 66.6312H184.662C183.176 66.6312 181.972 67.836 181.972 69.3229C181.972 70.8093 183.176 72.0146 184.662 72.0146H372.668C374.153 72.0146 375.357 70.8093 375.357 69.3229C375.357 67.836 374.153 66.6312 372.668 66.6312Z" fill="#CADCE8"/>
<path d="M241.78 103.131H197.836V153.247H241.78V103.131Z" fill="#E8837E"/>
<path d="M350.127 103.131H245.928V153.247H350.127V103.131Z" fill="#E8837E"/>
<path d="M350.127 158.795H300.929V208.91H350.127V158.795Z" fill="#DDE4ED"/>
<path d="M296.781 158.795H198.389V208.91H296.781V158.795Z" fill="#DDE4ED"/>
<path d="M350.403 214.458H198.389V264.573H350.403V214.458Z" fill="#DDE4ED"/>
<path d="M351.746 271.309H312.766V276.665H351.746V271.309Z" fill="#DDE4ED"/>
<path d="M138.804 285.433H74.9992C73.9485 285.441 72.9133 285.183 71.9887 284.683C70.6507 283.951 69.7944 282.75 69.7944 281.398L69.8301 193.613C69.831 193.038 69.9849 192.474 70.2761 191.979C71.0878 190.568 72.9209 189.577 75.0349 189.577H138.839C141.069 189.577 142.947 190.658 143.696 192.166C143.923 192.613 144.042 193.107 144.044 193.608L144.013 281.398C144.013 283.424 142.055 285.116 139.526 285.393C139.286 285.42 139.045 285.434 138.804 285.433Z" fill="white"/>
<path d="M140.538 284.76L76.7116 284.746C75.6613 284.754 74.6257 284.496 73.7011 283.996C72.3632 283.264 71.5068 282.064 71.5068 280.711L71.5425 192.926C71.5434 192.351 71.6973 191.788 71.9885 191.292C72.8002 189.881 74.6333 188.891 76.7473 188.891H77.617L77.6036 275.328C77.6036 276.667 78.4689 277.881 79.7979 278.613C80.7225 279.113 81.7581 279.371 82.8084 279.363H145.748V280.702C145.748 282.729 143.79 284.42 141.261 284.697C141.021 284.732 140.78 284.753 140.538 284.76Z" fill="#D6DEE9"/>
<path d="M139.669 287.438H75.8602C74.3559 287.446 72.8734 287.072 71.5519 286.353C69.3219 285.116 67.9839 283.009 67.9839 280.724L68.0196 192.939C68.0249 191.892 68.3063 190.865 68.8357 189.961C70.1737 187.662 72.8497 186.23 75.9048 186.23H139.709C142.831 186.23 145.619 187.77 146.885 190.162L147.242 190.711V190.961C147.473 191.598 147.591 192.27 147.59 192.948L147.554 280.733C147.554 284.099 144.597 286.982 140.682 287.388C140.345 287.424 140.007 287.44 139.669 287.438ZM75.8914 191.564C74.6917 191.564 73.7551 192.095 73.4563 192.622C73.3979 192.711 73.3653 192.815 73.3626 192.921L73.327 280.706C73.327 281.001 73.6525 281.376 74.1387 281.648C74.669 281.929 75.2604 282.073 75.8602 282.068H139.665C139.805 282.068 139.945 282.061 140.084 282.045C141.422 281.902 142.198 281.152 142.198 280.706L142.234 192.921C142.234 192.868 142.225 192.815 142.207 192.765L141.957 192.381C141.34 191.824 140.53 191.531 139.7 191.564H75.8959H75.8914Z" fill="#426572"/>
<path d="M132.31 227.564H89.0391V232.92H132.31V227.564Z" fill="#426572"/>
<path d="M132.31 216.387H89.0391V221.743H132.31V216.387Z" fill="#426572"/>
<path d="M132.31 240.228H89.0391V245.584H132.31V240.228Z" fill="#426572"/>
<path opacity="0.2" d="M478.111 126.772C481.228 120.916 483.141 114.494 483.739 107.886C484.337 101.278 483.605 94.6166 481.589 88.2954C479.573 81.9747 476.309 76.1222 471.996 71.083C467.683 66.0442 462.407 61.921 456.475 58.9566C450.543 55.9922 444.08 54.2469 437.463 53.8237C430.847 53.4005 424.213 54.308 417.953 56.4921C411.693 58.6767 405.934 62.0942 401.014 66.5424C396.095 70.991 392.116 76.3802 389.312 82.3929C385.44 89.6712 383.438 97.7993 383.486 106.045C383.535 114.291 385.633 122.395 389.591 129.627C393.549 136.859 399.243 142.991 406.16 147.471C413.076 151.952 420.998 154.639 429.211 155.291C427.778 155.631 426.323 155.906 424.845 156.117C432.62 157.239 440.55 156.498 447.983 153.956C455.414 151.414 462.139 147.143 467.603 141.494C471.974 137.27 475.537 132.28 478.111 126.772Z" fill="#606060"/>
<path d="M427.605 143.689C455.021 143.689 477.245 121.445 477.245 94.0064C477.245 66.5679 455.021 44.3242 427.605 44.3242C400.19 44.3242 377.966 66.5679 377.966 94.0064C377.966 121.445 400.19 143.689 427.605 143.689Z" fill="#A8EF9E"/>
<path d="M474.877 97.5565C474.877 104.68 473.343 111.719 470.386 118.198C467.429 124.677 463.112 130.443 457.733 135.106C452.354 139.77 446.034 143.221 439.204 145.225C432.375 147.23 425.194 147.742 418.15 146.725C429.962 145.017 440.764 139.105 448.576 130.075C456.39 121.045 460.69 109.499 460.69 97.5543C460.69 85.6091 456.39 74.0639 448.576 65.0336C440.764 56.0034 429.962 50.0924 418.15 48.3832C425.195 47.3663 432.376 47.8775 439.207 49.8821C446.039 51.8868 452.358 55.3378 457.737 60.0016C463.116 64.6654 467.433 70.4326 470.39 76.9123C473.352 83.3919 474.881 90.4327 474.881 97.5565H474.877Z" fill="#A7E59C"/>
<path d="M426.423 148.73C416.076 148.73 405.962 145.659 397.359 139.905C388.755 134.152 382.05 125.974 378.09 116.407C374.131 106.839 373.095 96.3111 375.113 86.1542C377.132 75.9972 382.114 66.6674 389.431 59.3446C396.747 52.0221 406.069 47.0352 416.217 45.0149C426.365 42.9944 436.884 44.0313 446.444 47.9944C456.002 51.9574 464.173 58.6687 469.922 67.2794C475.671 75.8897 478.739 86.0131 478.739 96.3692C478.726 110.251 473.209 123.56 463.401 133.377C453.594 143.193 440.294 148.714 426.423 148.73ZM426.423 49.3697C417.135 49.3697 408.055 52.1266 400.332 57.2912C392.609 62.4563 386.59 69.797 383.035 78.3858C379.48 86.9746 378.55 96.4259 380.362 105.544C382.174 114.661 386.647 123.037 393.215 129.61C399.783 136.184 408.151 140.661 417.261 142.474C426.371 144.288 435.814 143.357 444.396 139.799C452.978 136.242 460.31 130.217 465.471 122.487C470.631 114.758 473.387 105.67 473.387 96.3736C473.374 83.9116 468.423 71.9633 459.619 63.1513C450.811 54.3389 438.875 49.3827 426.423 49.3697Z" fill="#426572"/>
<path d="M451.498 76.0544C450.427 75.4553 449.165 75.2946 447.979 75.6058C446.793 75.9169 445.773 76.6762 445.133 77.7234L436.539 91.7844L422.807 114.228L422.423 114.858L406.568 102.163L403.678 99.8509C401.782 98.3333 398.924 97.8556 397.099 99.8509C395.547 101.543 395.07 104.81 397.099 106.435L417.486 122.754L420.376 125.067C421.576 126.031 422.718 126.557 424.283 126.348C424.983 126.262 425.653 126.016 426.242 125.629C426.831 125.242 427.324 124.724 427.682 124.116L436.276 110.055L450.013 87.6152L453.184 82.4287C454.437 80.3486 453.688 77.2239 451.498 76.0544Z" fill="white"/>
</g>
<defs>
<linearGradient id="paint0_linear_335_1218" x1="0.588968" y1="165.691" x2="559.55" y2="165.691" gradientUnits="userSpaceOnUse">
<stop stop-color="#C5E9FA"/>
<stop offset="1" stop-color="#C4F4EA"/>
</linearGradient>
<clipPath id="clip0_335_1218">
<rect width="574" height="333" fill="white"/>
</clipPath>
</defs>
</svg>
