<svg width="482" height="399" viewBox="0 0 482 399" fill="none" xmlns="http://www.w3.org/2000/svg">
<g clip-path="url(#clip0_335_1269)">
<path d="M468.703 373.114H9.80834C5.1653 373.114 1.40137 376.874 1.40137 381.514V387.765C1.40137 392.404 5.1653 396.165 9.80834 396.165H468.703C473.346 396.165 477.11 392.404 477.11 387.765V381.514C477.11 376.874 473.346 373.114 468.703 373.114Z" fill="#BCDFFF"/>
<path d="M430.157 301.069C430.152 270.828 425.267 240.785 415.69 212.099L398.63 160.929C397.265 156.838 394.646 153.28 391.144 150.758C387.643 148.237 383.436 146.88 379.119 146.88H104.568C100.251 146.878 96.0431 148.235 92.5395 150.756C89.0366 153.278 86.4164 156.836 85.0503 160.929L67.9562 212.099C58.3928 240.788 53.5219 270.83 53.5313 301.069" fill="#58B1FF"/>
<path d="M430.157 288.464H53.5312C53.5312 281.231 53.8115 274.014 54.3719 266.813C59.7215 264.094 65.6393 262.679 71.6411 262.683H406.645C414.903 262.681 422.938 265.353 429.547 270.299C429.953 276.342 430.157 282.397 430.157 288.464Z" fill="#4E9CE1"/>
<path d="M402.134 171.298H81.5195L89.282 143.998C92.0072 134.408 99.6576 127.947 108.261 127.947H375.406C384.017 127.947 391.66 134.415 394.385 143.998L402.134 171.298Z" fill="#4E9CE1"/>
<path d="M259.908 181.805V190.247H331.255V181.672" fill="#4E9CE1"/>
<path d="M94.2571 219.051L59.0303 232.583L59.7845 234.543L95.0109 221.011L94.2571 219.051Z" fill="#385868"/>
<path d="M82.3284 228.525L57.6689 237.997L58.4232 239.957L83.0823 230.485L82.3284 228.525Z" fill="#385868"/>
<path d="M316.782 210.7H306.224C304.435 210.7 302.719 211.411 301.454 212.675C300.189 213.939 299.478 215.653 299.478 217.441C299.478 219.229 300.189 220.943 301.454 222.207C302.719 223.472 304.435 224.182 306.224 224.182H316.782C318.571 224.182 320.287 223.472 321.552 222.207C322.817 220.943 323.528 219.229 323.528 217.441C323.528 215.653 322.817 213.939 321.552 212.675C320.287 211.411 318.571 210.7 316.782 210.7Z" fill="#4E9CE1"/>
<path d="M351.09 210.7H340.532C338.742 210.7 337.026 211.411 335.761 212.675C334.496 213.939 333.785 215.653 333.785 217.441C333.785 219.229 334.496 220.943 335.761 222.207C337.026 223.472 338.742 224.182 340.532 224.182H351.09C352.879 224.182 354.595 223.472 355.86 222.207C357.125 220.943 357.836 219.229 357.836 217.441C357.836 215.653 357.125 213.939 355.86 212.675C354.595 211.411 352.879 210.7 351.09 210.7Z" fill="#4E9CE1"/>
<path d="M374.811 224.182H385.369C387.158 224.182 388.875 223.472 390.14 222.207C391.405 220.943 392.115 219.229 392.115 217.441C392.115 215.653 391.405 213.939 390.14 212.675C388.875 211.411 387.158 210.7 385.369 210.7H374.811C373.022 210.7 371.306 211.411 370.041 212.675C368.776 213.939 368.064 215.653 368.064 217.441C368.064 219.229 368.776 220.943 370.041 222.207C371.306 223.472 373.022 224.182 374.811 224.182Z" fill="#4E9CE1"/>
<path d="M316.782 235.9H306.224C304.435 235.9 302.719 236.611 301.454 237.875C300.189 239.139 299.478 240.853 299.478 242.641C299.478 244.429 300.189 246.143 301.454 247.407C302.719 248.672 304.435 249.382 306.224 249.382H316.782C318.571 249.382 320.287 248.672 321.552 247.407C322.817 246.143 323.528 244.429 323.528 242.641C323.528 240.853 322.817 239.139 321.552 237.875C320.287 236.611 318.571 235.9 316.782 235.9Z" fill="#4E9CE1"/>
<path d="M351.09 235.9H340.532C338.742 235.9 337.026 236.611 335.761 237.875C334.496 239.139 333.785 240.853 333.785 242.641C333.785 244.429 334.496 246.143 335.761 247.407C337.026 248.672 338.742 249.382 340.532 249.382H351.09C352.879 249.382 354.595 248.672 355.86 247.407C357.125 246.143 357.836 244.429 357.836 242.641C357.836 240.853 357.125 239.139 355.86 237.875C354.595 236.611 352.879 235.9 351.09 235.9Z" fill="#4E9CE1"/>
<path d="M385.404 235.9H374.811C373.022 235.9 371.306 236.611 370.041 237.875C368.776 239.139 368.064 240.853 368.064 242.641C368.064 244.429 368.776 246.143 370.041 247.407C371.306 248.672 373.022 249.382 374.811 249.382H385.369C387.158 249.382 388.875 248.672 390.14 247.407C391.405 246.143 392.115 244.429 392.115 242.641C392.115 240.853 391.405 239.139 390.14 237.875C388.875 236.611 387.158 235.9 385.369 235.9H385.404Z" fill="#4E9CE1"/>
<path d="M214.139 210.7H203.582C201.792 210.7 200.076 211.411 198.811 212.675C197.546 213.939 196.835 215.653 196.835 217.441C196.835 219.229 197.546 220.943 198.811 222.207C200.076 223.472 201.792 224.182 203.582 224.182H214.139C215.929 224.182 217.644 223.472 218.91 222.207C220.175 220.943 220.886 219.229 220.886 217.441C220.886 215.653 220.175 213.939 218.91 212.675C217.644 211.411 215.929 210.7 214.139 210.7Z" fill="#4E9CE1"/>
<path d="M248.447 210.7H237.889C236.1 210.7 234.383 211.411 233.118 212.675C231.854 213.939 231.143 215.653 231.143 217.441C231.143 219.229 231.854 220.943 233.118 222.207C234.383 223.472 236.1 224.182 237.889 224.182H248.447C250.236 224.182 251.952 223.472 253.217 222.207C254.482 220.943 255.194 219.229 255.194 217.441C255.194 215.653 254.482 213.939 253.217 212.675C251.952 211.411 250.236 210.7 248.447 210.7Z" fill="#4E9CE1"/>
<path d="M282.761 210.7H272.204C270.414 210.7 268.698 211.411 267.433 212.675C266.167 213.939 265.457 215.653 265.457 217.441C265.457 219.229 266.167 220.943 267.433 222.207C268.698 223.472 270.414 224.182 272.204 224.182H282.761C284.551 224.182 286.266 223.472 287.532 222.207C288.797 220.943 289.508 219.229 289.508 217.441C289.508 215.653 288.797 213.939 287.532 212.675C286.266 211.411 284.551 210.7 282.761 210.7Z" fill="#4E9CE1"/>
<path d="M214.139 235.9H203.582C201.792 235.9 200.076 236.611 198.811 237.875C197.546 239.139 196.835 240.853 196.835 242.641C196.835 244.429 197.546 246.143 198.811 247.407C200.076 248.672 201.792 249.382 203.582 249.382H214.139C215.929 249.382 217.644 248.672 218.91 247.407C220.175 246.143 220.886 244.429 220.886 242.641C220.886 240.853 220.175 239.139 218.91 237.875C217.644 236.611 215.929 235.9 214.139 235.9Z" fill="#4E9CE1"/>
<path d="M248.447 235.9H237.889C236.1 235.9 234.383 236.611 233.118 237.875C231.854 239.139 231.143 240.853 231.143 242.641C231.143 244.429 231.854 246.143 233.118 247.407C234.383 248.672 236.1 249.382 237.889 249.382H248.447C250.236 249.382 251.952 248.672 253.217 247.407C254.482 246.143 255.194 244.429 255.194 242.641C255.194 240.853 254.482 239.139 253.217 237.875C251.952 236.611 250.236 235.9 248.447 235.9Z" fill="#4E9CE1"/>
<path d="M282.761 235.9H272.204C270.414 235.9 268.698 236.611 267.433 237.875C266.167 239.139 265.457 240.853 265.457 242.641C265.457 244.429 266.167 246.143 267.433 247.407C268.698 248.672 270.414 249.382 272.204 249.382H282.761C284.551 249.382 286.266 248.672 287.532 247.407C288.797 246.143 289.508 244.429 289.508 242.641C289.508 240.853 288.797 239.139 287.532 237.875C286.266 236.611 284.551 235.9 282.761 235.9Z" fill="#4E9CE1"/>
<path d="M316.775 204.252H306.224C302.498 204.252 299.478 207.271 299.478 210.993C299.478 214.717 302.498 217.734 306.224 217.734H316.775C320.501 217.734 323.521 214.717 323.521 210.993C323.521 207.271 320.501 204.252 316.775 204.252Z" fill="#FFFDDC"/>
<path d="M316.781 220.499H306.224C303.691 220.499 301.262 219.493 299.472 217.704C297.681 215.915 296.675 213.488 296.675 210.958C296.675 208.427 297.681 206.001 299.472 204.211C301.262 202.422 303.691 201.417 306.224 201.417H316.781C319.314 201.417 321.743 202.422 323.534 204.211C325.324 206.001 326.33 208.427 326.33 210.958C326.33 213.488 325.324 215.915 323.534 217.704C321.743 219.493 319.314 220.499 316.781 220.499ZM306.224 207.052C305.178 207.052 304.175 207.467 303.435 208.206C302.695 208.945 302.279 209.948 302.279 210.993C302.279 212.038 302.695 213.04 303.435 213.779C304.175 214.519 305.178 214.934 306.224 214.934H316.781C317.827 214.934 318.831 214.519 319.571 213.779C320.31 213.04 320.726 212.038 320.726 210.993C320.726 209.948 320.31 208.945 319.571 208.206C318.831 207.467 317.827 207.052 316.781 207.052H306.224Z" fill="#385868"/>
<path d="M351.083 204.252H340.532C336.805 204.252 333.785 207.271 333.785 210.993C333.785 214.717 336.805 217.734 340.532 217.734H351.083C354.808 217.734 357.829 214.717 357.829 210.993C357.829 207.271 354.808 204.252 351.083 204.252Z" fill="#FFFDDC"/>
<path d="M351.089 220.499H340.531C337.999 220.499 335.57 219.493 333.779 217.704C331.988 215.915 330.982 213.488 330.982 210.958C330.982 208.427 331.988 206.001 333.779 204.211C335.57 202.422 337.999 201.417 340.531 201.417H351.089C353.622 201.417 356.051 202.422 357.841 204.211C359.632 206.001 360.638 208.427 360.638 210.958C360.638 213.488 359.632 215.915 357.841 217.704C356.051 219.493 353.622 220.499 351.089 220.499ZM340.531 207.017C339.485 207.017 338.482 207.432 337.742 208.171C337.003 208.91 336.587 209.913 336.587 210.958C336.587 212.003 337.003 213.005 337.742 213.744C338.482 214.484 339.485 214.899 340.531 214.899H351.089C352.135 214.899 353.138 214.484 353.878 213.744C354.618 213.005 355.033 212.003 355.033 210.958C355.033 209.913 354.618 208.91 353.878 208.171C353.138 207.432 352.135 207.017 351.089 207.017H340.531Z" fill="#385868"/>
<path d="M385.397 204.252H374.846C371.12 204.252 368.1 207.271 368.1 210.993C368.1 214.717 371.12 217.734 374.846 217.734H385.397C389.123 217.734 392.144 214.717 392.144 210.993C392.144 207.271 389.123 204.252 385.397 204.252Z" fill="#FFFDDC"/>
<path d="M385.403 220.499H374.811C372.278 220.499 369.849 219.493 368.058 217.704C366.268 215.915 365.262 213.488 365.262 210.958C365.262 208.427 366.268 206.001 368.058 204.211C369.849 202.422 372.278 201.417 374.811 201.417H385.368C387.901 201.417 390.33 202.422 392.121 204.211C393.911 206.001 394.917 208.427 394.917 210.958C394.917 213.488 393.911 215.915 392.121 217.704C390.33 219.493 387.901 220.499 385.368 220.499H385.403ZM374.811 207.052C373.833 207.144 372.925 207.598 372.265 208.323C371.604 209.049 371.238 209.994 371.238 210.975C371.238 211.957 371.604 212.902 372.265 213.627C372.925 214.353 373.833 214.806 374.811 214.899H385.368C386.414 214.899 387.418 214.484 388.157 213.744C388.897 213.005 389.313 212.003 389.313 210.958C389.313 209.913 388.897 208.91 388.157 208.171C387.418 207.432 386.414 207.017 385.368 207.017L374.811 207.052Z" fill="#385868"/>
<path d="M316.775 229.452H306.224C302.498 229.452 299.478 232.471 299.478 236.193C299.478 239.917 302.498 242.934 306.224 242.934H316.775C320.501 242.934 323.521 239.917 323.521 236.193C323.521 232.471 320.501 229.452 316.775 229.452Z" fill="#FFFDDC"/>
<path d="M316.781 245.699H306.224C303.691 245.699 301.262 244.693 299.472 242.904C297.681 241.115 296.675 238.688 296.675 236.158C296.675 233.627 297.681 231.201 299.472 229.411C301.262 227.622 303.691 226.617 306.224 226.617H316.781C319.314 226.617 321.743 227.622 323.534 229.411C325.324 231.201 326.33 233.627 326.33 236.158C326.33 238.688 325.324 241.115 323.534 242.904C321.743 244.693 319.314 245.699 316.781 245.699ZM306.224 232.252C305.178 232.252 304.175 232.667 303.435 233.406C302.695 234.145 302.279 235.147 302.279 236.193C302.279 237.238 302.695 238.24 303.435 238.979C304.175 239.718 305.178 240.134 306.224 240.134H316.781C317.827 240.134 318.831 239.718 319.571 238.979C320.31 238.24 320.726 237.238 320.726 236.193C320.726 235.147 320.31 234.145 319.571 233.406C318.831 232.667 317.827 232.252 316.781 232.252H306.224Z" fill="#385868"/>
<path d="M351.083 229.452H340.532C336.805 229.452 333.785 232.471 333.785 236.193C333.785 239.917 336.805 242.934 340.532 242.934H351.083C354.808 242.934 357.829 239.917 357.829 236.193C357.829 232.471 354.808 229.452 351.083 229.452Z" fill="#FFFDDC"/>
<path d="M351.089 245.699H340.531C337.999 245.699 335.57 244.693 333.779 242.904C331.988 241.115 330.982 238.688 330.982 236.158C330.982 233.627 331.988 231.201 333.779 229.411C335.57 227.622 337.999 226.617 340.531 226.617H351.089C353.622 226.617 356.051 227.622 357.841 229.411C359.632 231.201 360.638 233.627 360.638 236.158C360.638 238.688 359.632 241.115 357.841 242.904C356.051 244.693 353.622 245.699 351.089 245.699ZM340.531 232.217C339.485 232.217 338.482 232.632 337.742 233.371C337.003 234.11 336.587 235.112 336.587 236.158C336.587 237.203 337.003 238.205 337.742 238.944C338.482 239.683 339.485 240.099 340.531 240.099H351.089C352.135 240.099 353.138 239.683 353.878 238.944C354.618 238.205 355.033 237.203 355.033 236.158C355.033 235.112 354.618 234.11 353.878 233.371C353.138 232.632 352.135 232.217 351.089 232.217H340.531Z" fill="#385868"/>
<path d="M385.397 229.452H374.846C371.12 229.452 368.1 232.471 368.1 236.193C368.1 239.917 371.12 242.934 374.846 242.934H385.397C389.123 242.934 392.144 239.917 392.144 236.193C392.144 232.471 389.123 229.452 385.397 229.452Z" fill="#FFFDDC"/>
<path d="M385.403 245.699H374.811C372.278 245.699 369.849 244.693 368.058 242.904C366.268 241.115 365.262 238.688 365.262 236.158C365.262 233.627 366.268 231.201 368.058 229.411C369.849 227.622 372.278 226.617 374.811 226.617H385.368C387.901 226.617 390.33 227.622 392.121 229.411C393.911 231.201 394.917 233.627 394.917 236.158C394.917 238.688 393.911 241.115 392.121 242.904C390.33 244.693 387.901 245.699 385.368 245.699H385.403ZM374.811 232.252C373.833 232.344 372.925 232.798 372.265 233.523C371.604 234.249 371.238 235.194 371.238 236.175C371.238 237.156 371.604 238.102 372.265 238.827C372.925 239.553 373.833 240.006 374.811 240.099H385.368C386.414 240.099 387.418 239.683 388.157 238.944C388.897 238.205 389.313 237.203 389.313 236.158C389.313 235.112 388.897 234.11 388.157 233.371C387.418 232.632 386.414 232.217 385.368 232.217L374.811 232.252Z" fill="#385868"/>
<path d="M214.132 204.252H203.582C199.855 204.252 196.835 207.271 196.835 210.993C196.835 214.717 199.855 217.734 203.582 217.734H214.132C217.858 217.734 220.879 214.717 220.879 210.993C220.879 207.271 217.858 204.252 214.132 204.252Z" fill="#FFFDDC"/>
<path d="M214.14 220.499H203.582C201.05 220.499 198.621 219.493 196.83 217.704C195.039 215.915 194.033 213.488 194.033 210.958C194.033 208.427 195.039 206.001 196.83 204.211C198.621 202.422 201.05 201.417 203.582 201.417H214.14C216.672 201.417 219.101 202.422 220.892 204.211C222.683 206.001 223.689 208.427 223.689 210.958C223.689 213.488 222.683 215.915 220.892 217.704C219.101 219.493 216.672 220.499 214.14 220.499ZM203.582 207.017C202.536 207.017 201.533 207.432 200.793 208.171C200.053 208.91 199.638 209.913 199.638 210.958C199.638 212.003 200.053 213.005 200.793 213.744C201.533 214.484 202.536 214.899 203.582 214.899H214.14C215.186 214.899 216.189 214.484 216.929 213.744C217.669 213.005 218.084 212.003 218.084 210.958C218.084 209.913 217.669 208.91 216.929 208.171C216.189 207.432 215.186 207.017 214.14 207.017H203.582Z" fill="#385868"/>
<path d="M248.447 204.252H237.896C234.17 204.252 231.149 207.271 231.149 210.993C231.149 214.717 234.17 217.734 237.896 217.734H248.447C252.172 217.734 255.193 214.717 255.193 210.993C255.193 207.271 252.172 204.252 248.447 204.252Z" fill="#FFFDDC"/>
<path d="M248.448 220.499H237.89C235.357 220.499 232.928 219.493 231.138 217.704C229.347 215.915 228.341 213.488 228.341 210.958C228.341 208.427 229.347 206.001 231.138 204.211C232.928 202.422 235.357 201.417 237.89 201.417H248.448C250.98 201.417 253.409 202.422 255.2 204.211C256.99 206.001 257.996 208.427 257.996 210.958C257.996 213.488 256.99 215.915 255.2 217.704C253.409 219.493 250.98 220.499 248.448 220.499ZM237.89 207.017C236.844 207.017 235.841 207.432 235.101 208.171C234.361 208.91 233.945 209.913 233.945 210.958C233.945 212.003 234.361 213.005 235.101 213.744C235.841 214.484 236.844 214.899 237.89 214.899H248.448C249.493 214.899 250.497 214.484 251.237 213.744C251.976 213.005 252.392 212.003 252.392 210.958C252.392 209.913 251.976 208.91 251.237 208.171C250.497 207.432 249.493 207.017 248.448 207.017H237.89Z" fill="#385868"/>
<path d="M282.754 204.252H272.204C268.477 204.252 265.457 207.271 265.457 210.993C265.457 214.717 268.477 217.734 272.204 217.734H282.754C286.48 217.734 289.501 214.717 289.501 210.993C289.501 207.271 286.48 204.252 282.754 204.252Z" fill="#FFFDDC"/>
<path d="M282.762 220.499H272.204C269.672 220.499 267.243 219.493 265.452 217.704C263.661 215.915 262.655 213.488 262.655 210.958C262.655 208.427 263.661 206.001 265.452 204.211C267.243 202.422 269.672 201.417 272.204 201.417H282.762C285.295 201.417 287.723 202.422 289.514 204.211C291.305 206.001 292.311 208.427 292.311 210.958C292.311 213.488 291.305 215.915 289.514 217.704C287.723 219.493 285.295 220.499 282.762 220.499ZM272.204 207.017C271.158 207.017 270.155 207.432 269.415 208.171C268.675 208.91 268.26 209.913 268.26 210.958C268.26 212.003 268.675 213.005 269.415 213.744C270.155 214.484 271.158 214.899 272.204 214.899H282.762C283.808 214.899 284.811 214.484 285.551 213.744C286.291 213.005 286.706 212.003 286.706 210.958C286.706 209.913 286.291 208.91 285.551 208.171C284.811 207.432 283.808 207.017 282.762 207.017H272.204Z" fill="#385868"/>
<path d="M214.132 229.452H203.582C199.855 229.452 196.835 232.471 196.835 236.193C196.835 239.917 199.855 242.934 203.582 242.934H214.132C217.858 242.934 220.879 239.917 220.879 236.193C220.879 232.471 217.858 229.452 214.132 229.452Z" fill="#FFFDDC"/>
<path d="M214.14 245.699H203.582C201.05 245.699 198.621 244.693 196.83 242.904C195.039 241.115 194.033 238.688 194.033 236.158C194.033 233.627 195.039 231.201 196.83 229.411C198.621 227.622 201.05 226.617 203.582 226.617H214.14C216.672 226.617 219.101 227.622 220.892 229.411C222.683 231.201 223.689 233.627 223.689 236.158C223.689 238.688 222.683 241.115 220.892 242.904C219.101 244.693 216.672 245.699 214.14 245.699ZM203.582 232.217C202.536 232.217 201.533 232.632 200.793 233.371C200.053 234.11 199.638 235.112 199.638 236.158C199.638 237.203 200.053 238.205 200.793 238.944C201.533 239.683 202.536 240.099 203.582 240.099H214.14C215.186 240.099 216.189 239.683 216.929 238.944C217.669 238.205 218.084 237.203 218.084 236.158C218.084 235.112 217.669 234.11 216.929 233.371C216.189 232.632 215.186 232.217 214.14 232.217H203.582Z" fill="#385868"/>
<path d="M248.447 229.452H237.896C234.17 229.452 231.149 232.471 231.149 236.193C231.149 239.917 234.17 242.934 237.896 242.934H248.447C252.172 242.934 255.193 239.917 255.193 236.193C255.193 232.471 252.172 229.452 248.447 229.452Z" fill="#FFFDDC"/>
<path d="M248.448 245.699H237.89C235.357 245.699 232.928 244.693 231.138 242.904C229.347 241.115 228.341 238.688 228.341 236.158C228.341 233.627 229.347 231.201 231.138 229.411C232.928 227.622 235.357 226.617 237.89 226.617H248.448C250.98 226.617 253.409 227.622 255.2 229.411C256.99 231.201 257.996 233.627 257.996 236.158C257.996 238.688 256.99 241.115 255.2 242.904C253.409 244.693 250.98 245.699 248.448 245.699ZM237.89 232.217C236.844 232.217 235.841 232.632 235.101 233.371C234.361 234.11 233.945 235.112 233.945 236.158C233.945 237.203 234.361 238.205 235.101 238.944C235.841 239.683 236.844 240.099 237.89 240.099H248.448C249.493 240.099 250.497 239.683 251.237 238.944C251.976 238.205 252.392 237.203 252.392 236.158C252.392 235.112 251.976 234.11 251.237 233.371C250.497 232.632 249.493 232.217 248.448 232.217H237.89Z" fill="#385868"/>
<path d="M282.754 229.452H272.204C268.477 229.452 265.457 232.471 265.457 236.193C265.457 239.917 268.477 242.934 272.204 242.934H282.754C286.48 242.934 289.501 239.917 289.501 236.193C289.501 232.471 286.48 229.452 282.754 229.452Z" fill="#FFFDDC"/>
<path d="M282.762 245.699H272.204C269.672 245.699 267.243 244.693 265.452 242.904C263.661 241.115 262.655 238.688 262.655 236.158C262.655 233.627 263.661 231.201 265.452 229.411C267.243 227.622 269.672 226.617 272.204 226.617H282.762C285.295 226.617 287.723 227.622 289.514 229.411C291.305 231.201 292.311 233.627 292.311 236.158C292.311 238.688 291.305 241.115 289.514 242.904C287.723 244.693 285.295 245.699 282.762 245.699ZM272.204 232.217C271.158 232.217 270.155 232.632 269.415 233.371C268.675 234.11 268.26 235.112 268.26 236.158C268.26 237.203 268.675 238.205 269.415 238.944C270.155 239.683 271.158 240.099 272.204 240.099H282.762C283.808 240.099 284.811 239.683 285.551 238.944C286.291 238.205 286.706 237.203 286.706 236.158C286.706 235.112 286.291 234.11 285.551 233.371C284.811 232.632 283.808 232.217 282.762 232.217H272.204Z" fill="#385868"/>
<path d="M431.558 302.401H425.953C425.963 272.47 421.135 242.734 411.655 214.341L394.595 163.171C393.42 159.634 391.158 156.557 388.133 154.378C385.106 152.2 381.469 151.028 377.74 151.033H103.21C99.4798 151.028 95.843 152.2 92.8172 154.378C89.7907 156.557 87.5293 159.634 86.3537 163.171L69.2806 214.362C59.8004 242.748 54.9697 272.477 54.9748 302.401H49.3701C49.3645 271.875 54.2923 241.548 63.9632 212.591L81.0433 161.4C82.5902 156.747 85.5655 152.7 89.5455 149.834C93.5262 146.967 98.3098 145.428 103.217 145.433H377.747C382.653 145.428 387.437 146.967 391.418 149.834C395.398 152.7 398.374 156.747 399.92 161.4L417 212.591C426.659 241.55 431.575 271.876 431.558 302.401Z" fill="#385868"/>
<path d="M338.472 51.6387H323.921C319.614 51.6387 316.123 55.1268 316.123 59.4297V136.43C316.123 140.732 319.614 144.221 323.921 144.221H338.472C342.778 144.221 346.269 140.732 346.269 136.43V59.4297C346.269 55.1268 342.778 51.6387 338.472 51.6387Z" fill="#58B1FF"/>
<path d="M324.929 67.0742H316.803V81.963H324.929V67.0742Z" fill="#4E9CE1"/>
<path d="M338.808 146.217H324.257C321.446 146.215 318.751 145.099 316.764 143.113C314.777 141.127 313.659 138.434 313.657 135.626V58.6258C313.659 55.8175 314.777 53.1246 316.764 51.1389C318.751 49.153 321.446 48.0366 324.257 48.0348H338.815C341.626 48.0366 344.321 49.153 346.309 51.1389C348.295 53.1246 349.413 55.8175 349.415 58.6258V135.626C349.413 138.436 348.295 141.129 346.306 143.115C344.317 145.101 341.62 146.217 338.808 146.217ZM324.257 53.6278C322.932 53.6278 321.661 54.1536 320.725 55.0896C319.788 56.0256 319.262 57.2951 319.262 58.6188V135.619C319.262 136.942 319.788 138.212 320.725 139.148C321.661 140.084 322.932 140.61 324.257 140.61H338.815C340.14 140.61 341.411 140.084 342.347 139.148C343.284 138.212 343.81 136.942 343.81 135.619V58.6188C343.81 57.2951 343.284 56.0256 342.347 55.0896C341.411 54.1536 340.14 53.6278 338.815 53.6278H324.257Z" fill="#385868"/>
<path d="M390.581 83.314H90.3748C85.732 83.314 81.9678 87.0744 81.9678 91.714V150.717C81.9678 155.356 85.732 159.117 90.3748 159.117H390.581C395.224 159.117 398.988 155.356 398.988 150.717V91.714C398.988 87.0744 395.224 83.314 390.581 83.314Z" fill="#58B1FF"/>
<path d="M384.262 2.09998H280.506C275.863 2.09998 272.099 5.86078 272.099 10.5V58.674C272.099 63.3132 275.863 67.074 280.506 67.074H384.262C388.905 67.074 392.669 63.3132 392.669 58.674V10.5C392.669 5.86078 388.905 2.09998 384.262 2.09998Z" fill="#58B1FF"/>
<path d="M384.262 69.174H280.506C277.719 69.174 275.046 68.0678 273.075 66.0986C271.104 64.1295 269.997 61.4587 269.997 58.674V10.5C269.997 7.71526 271.104 5.04451 273.075 3.07538C275.046 1.10625 277.719 0 280.506 0H384.262C387.049 0 389.722 1.10625 391.693 3.07538C393.664 5.04451 394.771 7.71526 394.771 10.5V58.674C394.771 61.4587 393.664 64.1295 391.693 66.0986C389.722 68.0678 387.049 69.174 384.262 69.174ZM280.506 4.2C278.834 4.2 277.23 4.86375 276.047 6.04523C274.865 7.22673 274.201 8.82917 274.201 10.5V58.674C274.201 60.3448 274.865 61.9473 276.047 63.1288C277.23 64.3103 278.834 64.974 280.506 64.974H384.262C385.934 64.974 387.538 64.3103 388.72 63.1288C389.903 61.9473 390.567 60.3448 390.567 58.674V10.5C390.567 8.82917 389.903 7.22673 388.72 6.04523C387.538 4.86375 385.934 4.2 384.262 4.2H280.506Z" fill="#385868"/>
<path d="M379.484 10.8282H285.277C283.234 10.8282 281.578 12.4829 281.578 14.5241V55.2501C281.578 57.2914 283.234 58.9461 285.277 58.9461H379.484C381.527 58.9461 383.183 57.2914 383.183 55.2501V14.5241C383.183 12.4829 381.527 10.8282 379.484 10.8282Z" fill="#515151"/>
<path d="M81.134 107.101C81.1466 102.798 82.863 98.6748 85.9084 95.6319C88.9538 92.589 93.0803 90.874 97.3874 90.8607H381.894C386.2 90.874 390.326 92.589 393.372 95.6319C396.417 98.6748 398.134 102.798 398.147 107.101V92.6317C398.138 90.0095 397.091 87.4972 395.235 85.6429C393.38 83.7893 390.865 82.7435 388.241 82.7337H97.3804C93.0733 82.747 88.9468 84.462 85.9014 87.5049C82.856 90.5478 81.1396 94.6708 81.127 98.9737V142.29L81.134 107.101Z" fill="#4E9CE1"/>
<path d="M390.581 161.917H90.3753C87.4028 161.917 84.5514 160.737 82.4489 158.637C80.3472 156.536 79.166 153.687 79.166 150.717V91.7C79.166 88.7299 80.3472 85.8809 82.4489 83.7802C84.5514 81.6802 87.4028 80.5 90.3753 80.5H390.581C393.554 80.5 396.405 81.6802 398.508 83.7802C400.61 85.8809 401.791 88.7299 401.791 91.7V150.703C401.793 152.175 401.504 153.633 400.942 154.993C400.379 156.354 399.554 157.59 398.513 158.632C397.472 159.673 396.235 160.499 394.875 161.063C393.513 161.626 392.055 161.917 390.581 161.917ZM90.3753 86.1C88.8887 86.1 87.463 86.6901 86.4121 87.7401C85.3613 88.7901 84.7707 90.2146 84.7707 91.7V150.703C84.7707 152.188 85.3613 153.613 86.4121 154.663C87.463 155.713 88.8887 156.303 90.3753 156.303H390.581C392.068 156.303 393.494 155.713 394.545 154.663C395.595 153.613 396.186 152.188 396.186 150.703V91.7C396.186 90.2146 395.595 88.7901 394.545 87.7401C393.494 86.6901 392.068 86.1 390.581 86.1H90.3753Z" fill="#385868"/>
<path d="M258.55 121.667V180.775H329.897V120.764" fill="white"/>
<path opacity="0.15" d="M261.261 120.89V129.332H332.608V120.764" fill="#444343"/>
<path d="M334.058 183.575H257.106V121.667H262.711V177.975H328.454V120.764H334.058V183.575Z" fill="#385868"/>
<path d="M379.12 117.739H239.585V123.339H379.12V117.739Z" fill="#385868"/>
<path d="M297.838 133.7H268.035V135.8H297.838V133.7Z" fill="#385868"/>
<path d="M297.838 138.439H268.035V140.539H297.838V138.439Z" fill="#385868"/>
<path d="M297.838 146.56H268.035V148.66H297.838V146.56Z" fill="#385868"/>
<path d="M297.838 157.388H268.035V159.488H297.838V157.388Z" fill="#385868"/>
<path d="M297.838 161.449H268.035V163.549H297.838V161.449Z" fill="#385868"/>
<path d="M85.3448 127.513L84.916 129.569L121.861 137.266L122.291 135.211L85.3448 127.513Z" fill="#385868"/>
<path d="M81.2657 131.324L80.8369 133.38L106.7 138.769L107.128 136.714L81.2657 131.324Z" fill="#385868"/>
<g opacity="0.2">
<path opacity="0.2" d="M117.656 118.394C131.91 118.394 143.466 113.74 143.466 107.999C143.466 102.258 131.91 97.6041 117.656 97.6041C103.402 97.6041 91.8467 102.258 91.8467 107.999C91.8467 113.74 103.402 118.394 117.656 118.394Z" fill="white"/>
<path opacity="0.2" d="M161.352 107.759C168.316 107.759 173.962 105.484 173.962 102.677C173.962 99.8704 168.316 97.5954 161.352 97.5954C154.387 97.5954 148.741 99.8704 148.741 102.677C148.741 105.484 154.387 107.759 161.352 107.759Z" fill="white"/>
</g>
<path d="M320.726 10.2402L306.567 58.3582H301.067L315.226 10.2402H320.726Z" fill="white"/>
<path d="M340.917 10.2402L326.758 58.3582H311.037L325.196 10.2402H340.917Z" fill="white"/>
<path d="M379.484 60.3461H285.284C283.932 60.3443 282.636 59.8068 281.679 58.8515C280.723 57.8962 280.186 56.6011 280.184 55.2501V14.5241C280.186 13.1732 280.723 11.878 281.679 10.9227C282.636 9.96744 283.932 9.42998 285.284 9.42816H379.484C380.836 9.42998 382.132 9.96744 383.088 10.9227C384.044 11.878 384.582 13.1732 384.584 14.5241V55.2501C384.582 56.6011 384.044 57.8962 383.088 58.8515C382.132 59.8068 380.836 60.3443 379.484 60.3461ZM285.284 12.2281C284.675 12.23 284.091 12.4725 283.661 12.9027C283.23 13.3328 282.988 13.9158 282.986 14.5241V55.2501C282.988 55.8585 283.23 56.4414 283.661 56.8716C284.091 57.3018 284.675 57.5443 285.284 57.5461H379.484C380.093 57.5443 380.676 57.3018 381.107 56.8716C381.537 56.4414 381.78 55.8585 381.782 55.2501V14.5241C381.78 13.9158 381.537 13.3328 381.107 12.9027C380.676 12.4725 380.093 12.23 379.484 12.2281H285.284Z" fill="#385868"/>
<path d="M338.044 67.0742H335.942V77.672H338.044V67.0742Z" fill="#385868"/>
<path d="M72.8602 274.17H408.109C421.142 274.17 433.641 279.343 442.855 288.551C452.071 297.758 457.248 310.247 457.248 323.268V366.038C457.248 367.709 456.584 369.312 455.401 370.493C454.219 371.675 452.615 372.338 450.943 372.338H30.0406C28.3683 372.338 26.7645 371.675 25.5821 370.493C24.3996 369.312 23.7354 367.709 23.7354 366.038V323.268C23.7354 310.249 28.9105 297.763 38.1228 288.555C47.3351 279.348 59.8302 274.174 72.8602 274.17Z" fill="#4E9CE1"/>
<path d="M71.6413 285.083H406.645C416.833 285.083 426.603 289.127 433.807 296.325C441.011 303.523 445.058 313.285 445.058 323.464V348.293C445.058 351.887 443.629 355.335 441.086 357.876C438.542 360.417 435.092 361.845 431.495 361.845H46.7918C43.1946 361.845 39.7447 360.417 37.2011 357.876C34.6575 355.335 33.2285 351.887 33.2285 348.293V323.464C33.2285 313.285 37.2756 303.523 44.4794 296.325C51.6832 289.127 61.4537 285.083 71.6413 285.083Z" fill="#58B1FF"/>
<path d="M445.85 375.201H35.1061C31.3409 375.198 27.7311 373.701 25.0687 371.041C22.4063 368.381 20.909 364.774 20.9053 361.012V323.268C20.922 309.507 26.4016 296.314 36.1419 286.584C45.8821 276.855 59.0874 271.383 72.8605 271.37H408.11C421.88 271.387 435.082 276.86 444.819 286.589C454.556 296.318 460.034 309.509 460.051 323.268V360.977C460.054 362.843 459.689 364.691 458.976 366.416C458.264 368.14 457.218 369.708 455.9 371.029C454.581 372.35 453.015 373.398 451.29 374.114C449.566 374.83 447.717 375.199 445.85 375.201ZM72.8605 276.97C60.5758 276.985 48.7986 281.868 40.112 290.547C31.4254 299.226 26.5388 310.994 26.5239 323.268V360.977C26.5203 362.106 26.7394 363.226 27.1688 364.271C27.5981 365.315 28.2294 366.265 29.0264 367.066C29.8235 367.867 30.7706 368.503 31.8138 368.938C32.857 369.373 33.9757 369.599 35.1061 369.601H445.85C448.129 369.599 450.315 368.694 451.926 367.083C453.538 365.473 454.444 363.289 454.446 361.012V323.268C454.431 310.994 449.545 299.226 440.858 290.547C432.171 281.868 420.394 276.985 408.11 276.97H72.8605Z" fill="#385868"/>
<path d="M248.937 337.653C255.782 337.653 261.33 332.156 261.33 325.375C261.33 318.594 255.782 313.097 248.937 313.097C242.093 313.097 236.544 318.594 236.544 325.375C236.544 332.156 242.093 337.653 248.937 337.653Z" fill="#FFFDDC"/>
<path d="M248.938 338.353C246.095 338.334 243.322 337.476 240.968 335.885C238.614 334.295 236.783 332.043 235.708 329.414C234.633 326.785 234.361 323.897 234.927 321.114C235.492 318.331 236.869 315.778 238.886 313.776C240.902 311.774 243.466 310.414 246.254 309.867C249.043 309.319 251.932 309.609 254.556 310.7C257.181 311.79 259.422 313.634 261 315.996C262.577 318.359 263.419 321.135 263.419 323.975C263.4 327.798 261.865 331.458 259.151 334.153C256.437 336.848 252.764 338.358 248.938 338.353ZM248.938 313.804C246.926 313.822 244.966 314.434 243.303 315.563C241.639 316.693 240.348 318.289 239.591 320.151C238.835 322.013 238.646 324.057 239.05 326.025C239.454 327.993 240.431 329.799 241.86 331.213C243.29 332.627 245.105 333.586 247.079 333.971C249.052 334.356 251.097 334.148 252.953 333.374C254.808 332.6 256.393 331.294 257.508 329.622C258.622 327.949 259.217 325.984 259.215 323.975C259.196 321.266 258.105 318.675 256.179 316.768C254.252 314.862 251.649 313.796 248.938 313.804Z" fill="#385868"/>
<path d="M457.249 310.302H397.944V313.102H457.249V310.302Z" fill="#385868"/>
<path d="M392.795 310.302H372.724V313.102H392.795V310.302Z" fill="#385868"/>
<path d="M457.248 317.302H423.501V320.102H457.248V317.302Z" fill="#385868"/>
<path d="M420.573 317.302H409.153V320.102H420.573V317.302Z" fill="#385868"/>
<path d="M478.497 382.2H2.80273C2.97884 380.096 3.94174 378.135 5.49967 376.708C7.05758 375.281 9.09627 374.493 11.2097 374.5H470.091C472.204 374.493 474.243 375.281 475.8 376.708C477.358 378.135 478.322 380.096 478.497 382.2Z" fill="#DEEFFF"/>
<path d="M470.09 399H11.2093C8.23638 399 5.38528 397.82 3.28313 395.72C1.18098 393.619 0 390.77 0 387.8V381.5C0 378.53 1.18098 375.681 3.28313 373.58C5.38528 371.48 8.23638 370.3 11.2093 370.3H470.09C473.063 370.3 475.914 371.48 478.017 373.58C480.118 375.681 481.299 378.53 481.299 381.5V387.8C481.299 390.77 480.118 393.619 478.017 395.72C475.914 397.82 473.063 399 470.09 399ZM11.2093 375.9C9.72288 375.9 8.29727 376.49 7.24618 377.54C6.19514 378.59 5.60465 380.015 5.60465 381.5V387.8C5.60465 389.285 6.19514 390.71 7.24618 391.76C8.29727 392.81 9.72288 393.4 11.2093 393.4H470.09C471.577 393.4 473.002 392.81 474.053 391.76C475.104 390.71 475.695 389.285 475.695 387.8V381.5C475.695 380.015 475.104 378.59 474.053 377.54C473.002 376.49 471.577 375.9 470.09 375.9H11.2093Z" fill="#385868"/>
<path d="M62.1206 386.252H2.81641V388.352H62.1206V386.252Z" fill="#385868"/>
<path d="M87.3412 386.252H67.2695V388.352H87.3412V386.252Z" fill="#385868"/>
<path d="M36.5634 381.352H2.81641V383.452H36.5634V381.352Z" fill="#385868"/>
<path d="M50.9117 381.352H39.4922V383.452H50.9117V381.352Z" fill="#385868"/>
</g>
<defs>
<clipPath id="clip0_335_1269">
<rect width="482" height="399" fill="white"/>
</clipPath>
</defs>
</svg>
