<svg width="251" height="428" viewBox="0 0 251 428" fill="none" xmlns="http://www.w3.org/2000/svg">
<g clip-path="url(#clip0_335_1175)">
<path d="M74.461 343.51V356.558C74.4534 358.845 75.1249 361.082 76.3903 362.987C77.6557 364.892 79.4579 366.379 81.5685 367.256C82.8074 367.779 84.2419 368.366 85.8069 368.889L86.5894 370.78V380.892C86.5851 382.651 87.1034 384.372 88.0788 385.836C89.0541 387.299 90.4421 388.44 92.0668 389.113L94.8707 390.156V392.635C95.2416 400.839 98.7597 408.582 104.693 414.255C110.626 419.93 118.517 423.096 126.724 423.096C134.931 423.096 142.823 419.93 148.755 414.255C154.689 408.582 158.207 400.839 158.578 392.635L159.621 389.83L161.512 389.113C163.136 388.44 164.525 387.299 165.499 385.836C166.475 384.372 166.993 382.651 166.989 380.892V370.845V371.563V369.41L172.402 367.322C174.512 366.444 176.314 364.957 177.58 363.053C178.845 361.148 179.516 358.91 179.509 356.623V343.575L74.461 343.51Z" fill="#D9E1E4"/>
<path d="M126.82 405.154C116.495 405.164 106.242 403.422 96.4995 400C95.7261 399.681 95.1052 399.076 94.7653 398.31C94.4255 397.545 94.3927 396.678 94.6737 395.889C94.9923 395.117 95.6008 394.5 96.3686 394.171C97.1365 393.841 98.0027 393.826 98.7817 394.129C116.096 400.154 134.937 400.154 152.251 394.129C152.636 393.969 153.049 393.89 153.464 393.892C153.881 393.896 154.292 393.981 154.675 394.146C155.057 394.31 155.404 394.549 155.692 394.848C155.981 395.148 156.208 395.502 156.359 395.889C156.665 396.662 156.659 397.522 156.343 398.288C156.026 399.055 155.424 399.668 154.664 400C145.8 403.491 136.347 405.24 126.82 405.154Z" fill="#94B5BF"/>
<path d="M127.865 361.794C109.761 361.857 91.7757 358.879 74.6567 352.987C73.8785 352.684 73.2523 352.085 72.916 351.319C72.5797 350.555 72.5608 349.688 72.8635 348.909C73.1661 348.13 73.7655 347.504 74.5298 347.167C75.294 346.831 76.1607 346.812 76.9389 347.115C77.4606 347.115 127.539 366.166 174.097 347.115C174.483 346.965 174.893 346.892 175.306 346.901C175.72 346.911 176.128 347.001 176.505 347.167C176.885 347.335 177.226 347.574 177.512 347.872C177.798 348.172 178.022 348.523 178.172 348.909C178.322 349.295 178.395 349.706 178.385 350.12C178.376 350.533 178.285 350.941 178.119 351.319C177.953 351.699 177.713 352.04 177.415 352.326C177.117 352.613 176.765 352.837 176.379 352.987C160.927 359.026 144.453 362.016 127.865 361.794Z" fill="#94B5BF"/>
<path d="M165.684 369.02V371.173V370.455V377.501L164.445 377.958C151.667 382.652 138.21 385.231 124.604 385.592C111.257 385.312 98.0436 382.867 85.4801 378.349V370.455L85.0889 369.477C97.634 374.079 110.854 376.57 124.213 376.849L165.684 369.02Z" fill="#94B5BF"/>
<path d="M187.267 335.568V310.32C187.267 310.32 184.269 263.544 205.982 228.575C227.696 193.606 247.389 172.468 247.389 122.821C247.389 73.1728 204.613 4.21399 125.648 4.21399C46.6824 4.21399 3.8418 73.1728 3.8418 122.821C3.8418 172.468 23.4038 193.672 45.3131 228.575C58.2064 248.876 64.7248 272.577 64.0275 296.62V335.764C64.0085 336.882 64.3121 337.981 64.9019 338.93C65.4919 339.879 66.3429 340.637 67.353 341.115C85.6949 349.27 105.543 353.485 125.615 353.485C145.686 353.485 165.536 349.27 183.878 341.115C184.93 340.634 185.817 339.848 186.421 338.861C187.025 337.873 187.32 336.727 187.267 335.568Z" fill="#FBE481"/>
<path opacity="0.5" d="M203.828 230.126C190.935 250.427 184.417 274.128 185.114 298.172V337.315C185.111 338.436 184.791 339.534 184.192 340.48C183.592 341.427 182.736 342.184 181.724 342.665C168.198 348.806 153.781 352.748 139.013 354.344C139.013 349.711 138.622 344.035 138.296 337.315V298.172C137.501 274.144 143.952 250.433 156.814 230.126C178.528 195.222 198.221 174.084 198.221 124.372C198.221 79.8777 163.857 19.9873 99.8242 7.98308C107.603 6.48762 115.508 5.74482 123.429 5.76492C202.46 5.76492 245.235 74.7238 245.235 124.632C245.235 174.542 225.478 195.222 203.828 230.126Z" fill="#F8A547"/>
<path d="M202.787 229.016C193.093 245.282 188.063 263.903 188.246 282.839C188.246 292.886 188.246 298.757 188.246 298.757L183.876 336.01C183.874 337.13 183.554 338.228 182.955 339.174C182.354 340.122 181.499 340.88 180.487 341.359C167.022 347.466 152.67 351.385 137.972 352.972C137.972 352.515 137.972 352.19 137.972 351.732C149.623 350.701 161.077 348.067 172.009 343.904C174.096 342.925 175.27 344.491 175.27 342.208V296.997C174.567 272.982 181.062 249.307 193.919 229.016C215.632 194.112 235.456 172.975 235.456 123.262C235.456 73.5487 193.984 7.19953 117.692 4.7204C119.323 4.7204 121.018 4.7204 122.648 4.7204C201.418 4.58992 244.258 73.5487 244.258 123.196C244.258 172.844 224.501 194.047 202.787 229.016Z" fill="#FCA100"/>
<path d="M45.3131 229.029C58.1939 249.312 64.7117 272.988 64.0275 297.009V336.153C64.036 337.281 64.3655 338.383 64.9776 339.331C65.5896 340.279 66.4588 341.032 67.4833 341.502C80.9945 347.583 95.392 351.46 110.128 352.985C110.128 352.529 110.128 352.202 110.128 351.746C98.4192 349.761 87.0199 346.252 76.2211 341.306C74.0692 340.329 72.8303 344.503 72.8303 342.22L78.5685 317.299C84.7069 289.618 80.8491 260.657 67.679 235.553C66.5052 233.4 65.2011 231.247 63.8318 229.029C42.1832 194.059 22.3604 172.923 22.3604 123.209C22.3604 73.4962 54.1161 7.21215 130.734 4.73303C129.169 4.73303 127.473 4.73303 125.778 4.73303C107.606 4.46601 89.6154 8.37361 73.1899 16.1551C56.7644 23.9366 42.3422 35.3846 31.0329 49.6182C14.1133 70.4814 4.5546 96.3515 3.8418 123.209C3.8418 172.923 23.5993 194.059 45.3131 229.029Z" fill="white"/>
<path d="M31.7499 211.069C31.1526 211.074 30.564 210.927 30.0393 210.641C29.5147 210.356 29.0711 209.941 28.7503 209.438C12.6443 184.581 0.320312 162.4 0.320312 122.799C0.768827 102.598 6.28472 82.8336 16.3612 65.3223C16.5919 64.9106 16.9015 64.5485 17.2723 64.2568C17.6432 63.965 18.068 63.7492 18.5222 63.622C18.9766 63.4947 19.4514 63.4584 19.9198 63.5151C20.3881 63.5717 20.8407 63.7203 21.2516 63.9523C21.6554 64.1822 22.0096 64.4901 22.2939 64.8577C22.5783 65.2254 22.7872 65.6457 22.9084 66.0945C23.0295 66.5432 23.0608 67.0116 23.0004 67.4726C22.9398 67.9334 22.7887 68.3778 22.5557 68.7801C13.0703 85.2343 7.86851 103.809 7.42782 122.799C7.42782 160.508 18.7086 180.928 34.6842 205.589C34.9476 205.975 35.1299 206.411 35.2202 206.87C35.3103 207.329 35.3065 207.801 35.2091 208.258C35.1115 208.716 34.9222 209.149 34.6527 209.531C34.3831 209.913 34.039 210.236 33.6409 210.482C33.0829 210.861 32.4245 211.066 31.7499 211.069Z" fill="#3E3126"/>
<path d="M187.593 286.038C186.664 285.939 185.81 285.481 185.214 284.763C184.617 284.043 184.325 283.12 184.397 282.188C184.928 276.923 185.777 271.694 186.941 266.532C190.111 252.416 195.645 238.939 203.307 226.67C206.634 221.319 209.828 216.232 213.154 211.337C230.499 184.785 244.192 163.778 244.192 122.807C244.192 74.5947 203.112 7.78888 125.973 7.78888C97.1426 7.35299 69.2143 17.8403 47.7901 37.1469C47.4589 37.5361 47.0484 37.8502 46.5862 38.0678C46.124 38.2855 45.6207 38.4019 45.1098 38.409C44.599 38.4163 44.0925 38.3142 43.6243 38.1098C43.156 37.9053 42.7369 37.6031 42.3949 37.2234C42.053 36.8436 41.7959 36.3953 41.6411 35.9081C41.4865 35.4211 41.4375 34.9064 41.4975 34.3989C41.5577 33.8912 41.7255 33.4025 41.9898 32.965C42.254 32.5276 42.6087 32.1517 43.03 31.8625C65.681 11.4617 95.1719 0.329915 125.647 0.67771C207.415 0.67771 250.973 71.5937 250.973 122.807C250.973 165.93 236.041 188.766 218.761 215.187C215.632 220.08 212.241 225.104 208.981 230.453C201.764 242.072 196.54 254.818 193.526 268.163C192.427 273.021 191.643 277.946 191.18 282.907C191.068 283.777 190.641 284.577 189.98 285.153C189.319 285.73 188.47 286.046 187.593 286.038Z" fill="#3E3126"/>
<path d="M126.366 356.951C105.529 356.864 84.9393 352.42 65.9198 343.903C64.2796 343.159 62.8895 341.956 61.9175 340.44C60.9456 338.923 60.4332 337.157 60.4425 335.356V305.997C60.5592 305.137 60.9836 304.349 61.6371 303.777C62.2906 303.206 63.1287 302.892 63.9963 302.892C64.8639 302.892 65.702 303.206 66.3554 303.777C67.009 304.349 67.4334 305.137 67.5501 305.997V335.356C67.5531 335.79 67.6766 336.215 67.9068 336.584C68.137 336.952 68.4651 337.251 68.8542 337.444C86.7182 345.411 106.058 349.529 125.617 349.529C145.175 349.529 164.514 345.411 182.378 337.444C182.785 337.265 183.131 336.974 183.374 336.604C183.617 336.233 183.747 335.799 183.748 335.356V292.232C183.748 291.291 184.117 290.388 184.775 289.717C185.434 289.046 186.33 288.661 187.269 288.644C188.22 288.644 189.132 289.022 189.805 289.695C190.478 290.368 190.856 291.28 190.856 292.232V335.552C190.84 337.364 190.311 339.135 189.33 340.66C188.348 342.184 186.956 343.399 185.314 344.163C166.808 352.605 146.704 356.966 126.366 356.951Z" fill="#3E3126"/>
<path d="M62.0051 274.677C61.185 274.676 60.3911 274.388 59.7601 273.865C59.1293 273.341 58.7009 272.613 58.5491 271.807C56.6054 261.797 53.4295 252.068 49.0941 242.841C48.896 242.421 48.7828 241.966 48.7608 241.503C48.7388 241.038 48.8087 240.575 48.9662 240.139C49.1237 239.703 49.3659 239.302 49.6788 238.959C49.9916 238.616 50.3692 238.339 50.7894 238.143C51.6461 237.74 52.6271 237.693 53.5189 238.01C54.4105 238.327 55.1405 238.985 55.5495 239.839C60.1466 249.624 63.4984 259.947 65.5262 270.567C65.6992 271.492 65.5024 272.448 64.978 273.229C64.4536 274.009 63.6435 274.553 62.7223 274.742L62.0051 274.677Z" fill="#3E3126"/>
<path d="M205.901 170.984C208.756 163.244 206.608 155.321 201.101 153.286C195.594 151.253 188.814 155.88 185.959 163.62C183.103 171.361 185.251 179.283 190.759 181.318C196.266 183.351 203.046 178.726 205.901 170.984Z" fill="#FFB320"/>
<path d="M207.937 145.189C211.538 145.189 214.457 142.269 214.457 138.665C214.457 135.062 211.538 132.141 207.937 132.141C204.335 132.141 201.416 135.062 201.416 138.665C201.416 142.269 204.335 145.189 207.937 145.189Z" fill="#FFB320"/>
<path opacity="0.75" d="M190.592 146.105C192.033 146.105 193.2 144.937 193.2 143.495C193.2 142.054 192.033 140.886 190.592 140.886C189.152 140.886 187.984 142.054 187.984 143.495C187.984 144.937 189.152 146.105 190.592 146.105Z" fill="#FFB320"/>
<path d="M179.898 181.58C182.276 181.58 184.202 179.652 184.202 177.274C184.202 174.895 182.276 172.967 179.898 172.967C177.522 172.967 175.595 174.895 175.595 177.274C175.595 179.652 177.522 181.58 179.898 181.58Z" fill="#FFB320"/>
<path opacity="0.35" d="M202.071 123.528C204.736 123.528 206.895 121.366 206.895 118.7C206.895 116.034 204.736 113.872 202.071 113.872C199.406 113.872 197.245 116.034 197.245 118.7C197.245 121.366 199.406 123.528 202.071 123.528Z" fill="#FFB320"/>
<path opacity="0.35" d="M186.422 132.261C188.69 132.261 190.529 130.421 190.529 128.151C190.529 125.881 188.69 124.041 186.422 124.041C184.152 124.041 182.312 125.881 182.312 128.151C182.312 130.421 184.152 132.261 186.422 132.261Z" fill="#FFB320"/>
<path opacity="0.35" d="M176.312 156.799C178.222 156.799 179.768 155.251 179.768 153.341C179.768 151.431 178.222 149.884 176.312 149.884C174.404 149.884 172.856 151.431 172.856 153.341C172.856 155.251 174.404 156.799 176.312 156.799Z" fill="#FFB320"/>
<path opacity="0.75" d="M165.423 86.3448C166.864 86.3448 168.031 85.1764 168.031 83.7352C168.031 82.2939 166.864 81.1255 165.423 81.1255C163.983 81.1255 162.815 82.2939 162.815 83.7352C162.815 85.1764 163.983 86.3448 165.423 86.3448Z" fill="#E2AB63"/>
<path opacity="0.35" d="M153.945 63.7672C156.611 63.7672 158.771 61.6057 158.771 58.9395C158.771 56.2732 156.611 54.1117 153.945 54.1117C151.282 54.1117 149.121 56.2732 149.121 58.9395C149.121 61.6057 151.282 63.7672 153.945 63.7672Z" fill="#E2AB63"/>
<path opacity="0.35" d="M151.013 81.1867C153.281 81.1867 155.121 79.3466 155.121 77.0767C155.121 74.8067 153.281 72.9666 151.013 72.9666C148.745 72.9666 146.905 74.8067 146.905 77.0767C146.905 79.3466 148.745 81.1867 151.013 81.1867Z" fill="#E2AB63"/>
<path opacity="0.35" d="M163.726 104.475C165.635 104.475 167.181 102.927 167.181 101.017C167.181 99.1075 165.635 97.5594 163.726 97.5594C161.817 97.5594 160.27 99.1075 160.27 101.017C160.27 102.927 161.817 104.475 163.726 104.475Z" fill="#E2AB63"/>
<path d="M133.929 352.58C133.564 352.58 133.202 352.507 132.866 352.366C132.529 352.224 132.224 352.016 131.969 351.755C131.714 351.493 131.513 351.184 131.38 350.844C131.246 350.504 131.182 350.141 131.19 349.775V250.088H117.236V348.666C117.134 349.329 116.799 349.933 116.291 350.369C115.782 350.805 115.135 351.045 114.465 351.045C113.795 351.045 113.147 350.805 112.639 350.369C112.131 349.933 111.795 349.329 111.693 348.666V250.088H98.1306C93.1153 250.088 88.3056 248.096 84.7593 244.547C81.2129 240.999 79.2207 236.186 79.2207 231.169V227.646C79.2207 222.628 81.2129 217.816 84.7593 214.267C88.3056 210.719 93.1153 208.726 98.1306 208.726C103.146 208.726 107.956 210.719 111.502 214.267C115.048 217.816 117.04 222.628 117.04 227.646V244.543H130.995V227.646C131.278 222.811 133.398 218.268 136.919 214.947C140.439 211.624 145.098 209.773 149.937 209.773C154.778 209.773 159.434 211.624 162.955 214.947C166.477 218.268 168.596 222.811 168.879 227.646V231.169C168.863 236.125 166.911 240.879 163.438 244.415C159.966 247.95 155.248 249.986 150.296 250.088H137.255V349.775C137.261 350.192 137.176 350.605 137.004 350.984C136.831 351.364 136.577 351.7 136.259 351.969C135.94 352.237 135.565 352.432 135.163 352.538C134.76 352.644 134.338 352.659 133.929 352.58ZM136.732 244.543H149.774C151.544 244.56 153.298 244.227 154.939 243.563C156.58 242.9 158.073 241.919 159.333 240.676C160.594 239.433 161.596 237.953 162.283 236.322C162.97 234.69 163.329 232.939 163.337 231.169V227.646C163.101 224.252 161.586 221.074 159.098 218.753C156.611 216.433 153.338 215.142 149.937 215.142C146.536 215.142 143.263 216.433 140.775 218.753C138.288 221.074 136.774 224.252 136.537 227.646L136.732 244.543ZM98.1306 214.271C94.6978 214.354 91.4286 215.755 89.0005 218.184C86.5726 220.614 85.172 223.885 85.0892 227.319V230.842C85.0883 234.333 86.4518 237.687 88.8885 240.186C91.3252 242.686 94.6421 244.132 98.1306 244.217H111.172V227.646C111.173 224.155 109.809 220.801 107.373 218.302C104.936 215.803 101.619 214.356 98.1306 214.271Z" fill="#3E3126"/>
<path d="M195.739 97.3577C205.461 94.8187 210.666 82.5012 207.363 69.8461C204.063 57.1908 193.505 48.99 183.783 51.529C174.061 54.0681 168.857 66.3856 172.159 79.0408C175.461 91.6961 186.018 99.8968 195.739 97.3577Z" fill="#FFB320"/>
<path d="M102.565 374.365H101.913C94.7483 372.764 87.7263 370.582 80.9162 367.841C78.2892 366.957 76.0761 365.142 74.6947 362.739C73.3132 360.335 72.8589 357.508 73.4174 354.793C73.5159 353.967 73.9318 353.212 74.577 352.688C75.2222 352.166 76.0459 351.913 76.8734 351.987C77.2824 352.02 77.6808 352.133 78.0448 352.324C78.4089 352.513 78.7313 352.773 78.9928 353.089C79.2542 353.406 79.4496 353.772 79.5672 354.165C79.6847 354.558 79.7222 354.971 79.6773 355.379C79.1556 360.599 82.7419 361.903 82.9376 361.903C89.5443 364.406 96.3213 366.434 103.217 367.971C104.035 368.158 104.747 368.66 105.198 369.368C105.65 370.075 105.805 370.933 105.629 371.755C105.507 372.481 105.132 373.14 104.572 373.618C104.011 374.095 103.301 374.359 102.565 374.365Z" fill="white"/>
<path d="M105.826 378.014H105.304C96.3679 376.355 87.6271 373.775 79.2212 370.317C76.6279 369.257 74.4071 367.452 72.84 365.13C71.2729 362.806 70.4301 360.071 70.4184 357.268V344.22C70.3569 343.82 70.3825 343.413 70.4936 343.024C70.6046 342.635 70.7984 342.274 71.0616 341.968C71.3248 341.66 71.6513 341.414 72.0186 341.246C72.3859 341.075 72.7854 340.989 73.1897 340.989C73.594 340.989 73.9934 341.075 74.3607 341.246C74.728 341.414 75.0545 341.66 75.3178 341.968C75.5809 342.274 75.7747 342.635 75.8857 343.024C75.9968 343.413 76.0224 343.82 75.9609 344.22V357.268C75.9501 359.004 76.452 360.703 77.4032 362.154C78.3545 363.605 79.7128 364.742 81.3079 365.424C89.409 368.586 97.7935 370.968 106.347 372.534C106.703 372.598 107.043 372.73 107.348 372.926C107.652 373.12 107.915 373.374 108.121 373.671C108.327 373.968 108.473 374.303 108.549 374.657C108.625 375.01 108.63 375.376 108.564 375.731C108.443 376.371 108.104 376.948 107.604 377.365C107.105 377.781 106.476 378.012 105.826 378.014Z" fill="#3E3126"/>
<path d="M124.212 380.045C123.55 379.944 122.946 379.608 122.51 379.099C122.074 378.591 121.834 377.943 121.834 377.272C121.834 376.602 122.074 375.954 122.51 375.447C122.946 374.938 123.55 374.601 124.212 374.5C139.877 374.284 155.362 371.119 169.856 365.17C171.463 364.499 172.836 363.367 173.799 361.915C174.763 360.462 175.273 358.759 175.269 357.016V343.968C175.207 343.568 175.232 343.159 175.343 342.77C175.455 342.381 175.648 342.021 175.911 341.714C176.174 341.408 176.501 341.161 176.868 340.992C177.236 340.823 177.636 340.735 178.039 340.735C178.444 340.735 178.844 340.823 179.211 340.992C179.578 341.161 179.904 341.408 180.167 341.714C180.431 342.021 180.625 342.381 180.736 342.77C180.846 343.159 180.872 343.568 180.811 343.968V357.016C180.794 359.825 179.941 362.566 178.362 364.89C176.783 367.213 174.548 369.014 171.942 370.063C156.81 376.389 140.611 379.777 124.212 380.045Z" fill="#3E3126"/>
<path d="M126.562 399.614C113.942 399.432 101.469 396.887 89.7854 392.111C87.6523 391.219 85.8319 389.715 84.5549 387.787C83.2779 385.858 82.6019 383.595 82.6127 381.282V371.234C82.5512 370.834 82.5768 370.427 82.6879 370.038C82.799 369.649 82.9927 369.288 83.2559 368.981C83.5192 368.674 83.8456 368.428 84.2129 368.258C84.5802 368.089 84.9797 368.002 85.384 368.002C85.7883 368.002 86.1877 368.089 86.5551 368.258C86.9224 368.428 87.2488 368.674 87.5121 368.981C87.7752 369.288 87.969 369.649 88.0801 370.038C88.1911 370.427 88.2168 370.834 88.1552 371.234V381.282C88.1391 382.49 88.4842 383.677 89.1464 384.688C89.8087 385.7 90.7578 386.489 91.8721 386.957C102.885 391.489 114.655 393.902 126.562 394.068C126.961 394.007 127.37 394.033 127.758 394.143C128.147 394.254 128.507 394.449 128.814 394.712C129.121 394.975 129.367 395.302 129.536 395.669C129.705 396.036 129.792 396.436 129.792 396.841C129.792 397.246 129.705 397.646 129.536 398.013C129.367 398.38 129.121 398.707 128.814 398.97C128.507 399.234 128.147 399.428 127.758 399.539C127.37 399.649 126.961 399.675 126.562 399.614Z" fill="#3E3126"/>
<path d="M124.733 399.614C124.334 399.675 123.925 399.649 123.537 399.539C123.148 399.428 122.788 399.234 122.481 398.97C122.174 398.707 121.928 398.38 121.759 398.013C121.59 397.646 121.503 397.246 121.503 396.841C121.503 396.436 121.59 396.036 121.759 395.669C121.928 395.302 122.174 394.975 122.481 394.712C122.788 394.449 123.148 394.254 123.537 394.143C123.925 394.033 124.334 394.007 124.733 394.068C136.62 393.904 148.367 391.492 159.357 386.957C160.477 386.496 161.432 385.708 162.095 384.695C162.758 383.682 163.099 382.492 163.075 381.282V371.234C163.013 370.834 163.039 370.427 163.149 370.038C163.261 369.649 163.454 369.288 163.717 368.981C163.981 368.674 164.307 368.428 164.674 368.258C165.043 368.089 165.442 368.002 165.846 368.002C166.25 368.002 166.65 368.089 167.017 368.258C167.384 368.428 167.711 368.674 167.974 368.981C168.237 369.288 168.431 369.649 168.542 370.038C168.652 370.427 168.678 370.834 168.617 371.234V381.282C168.624 383.585 167.955 385.84 166.692 387.765C165.427 389.691 163.626 391.203 161.51 392.111C149.826 396.887 137.353 399.432 124.733 399.614Z" fill="#3E3126"/>
<path d="M125.646 427.744C116.462 427.744 107.656 424.093 101.162 417.597C94.6688 411.1 91.0209 402.288 91.0209 393.101C90.9594 392.7 90.985 392.292 91.0961 391.904C91.2072 391.515 91.4009 391.154 91.6641 390.848C91.9274 390.54 92.2538 390.294 92.6211 390.125C92.9885 389.957 93.3879 389.869 93.7922 389.869C94.1965 389.869 94.5959 389.957 94.9633 390.125C95.3306 390.294 95.657 390.54 95.9203 390.848C96.1834 391.154 96.3772 391.515 96.4883 391.904C96.5993 392.292 96.625 392.7 96.5635 393.101C96.5635 400.817 99.6274 408.219 105.081 413.675C110.535 419.132 117.933 422.197 125.646 422.197C133.359 422.197 140.756 419.132 146.21 413.675C151.664 408.219 154.727 400.817 154.727 393.101C154.667 392.7 154.692 392.292 154.803 391.904C154.914 391.515 155.108 391.154 155.371 390.848C155.634 390.54 155.961 390.294 156.328 390.125C156.695 389.957 157.094 389.869 157.499 389.869C157.903 389.869 158.302 389.957 158.671 390.125C159.038 390.294 159.364 390.54 159.627 390.848C159.89 391.154 160.083 391.515 160.195 391.904C160.306 392.292 160.332 392.7 160.27 393.101C160.27 397.65 159.375 402.154 157.634 406.357C155.895 410.56 153.344 414.38 150.128 417.597C146.914 420.813 143.096 423.365 138.896 425.107C134.695 426.847 130.193 427.744 125.646 427.744Z" fill="#3E3126"/>
<path d="M46.9417 234.75C49.1024 234.75 50.854 232.998 50.854 230.836C50.854 228.673 49.1024 226.921 46.9417 226.921C44.7809 226.921 43.0293 228.673 43.0293 230.836C43.0293 232.998 44.7809 234.75 46.9417 234.75Z" fill="#3E3126"/>
<path d="M64.0266 288.978C66.1874 288.978 67.939 287.226 67.939 285.064C67.939 282.901 66.1874 281.149 64.0266 281.149C61.8659 281.149 60.1143 282.901 60.1143 285.064C60.1143 287.226 61.8659 288.978 64.0266 288.978Z" fill="#3E3126"/>
<path d="M26.4026 61.7349C28.5634 61.7349 30.3151 59.9824 30.3151 57.8205C30.3151 55.6586 28.5634 53.9061 26.4026 53.9061C24.2418 53.9061 22.4902 55.6586 22.4902 57.8205C22.4902 59.9824 24.2418 61.7349 26.4026 61.7349Z" fill="#3E3126"/>
<path d="M34.1644 155.553H33.4472C33.2069 155.46 32.9875 155.319 32.8017 155.141C32.6159 154.962 32.4672 154.748 32.3641 154.512C32.2611 154.276 32.2058 154.021 32.2015 153.763C32.197 153.505 32.2437 153.25 32.3386 153.009L43.0325 127.566C43.1352 127.326 43.2842 127.108 43.471 126.926C43.6576 126.744 43.8784 126.6 44.1206 126.503C44.3628 126.406 44.6216 126.358 44.8825 126.361C45.1433 126.364 45.401 126.419 45.6408 126.522C45.8806 126.625 46.0977 126.774 46.2799 126.96C46.462 127.147 46.6058 127.368 46.7026 127.61C46.7995 127.853 46.8477 128.112 46.8445 128.373C46.8414 128.634 46.7869 128.891 46.684 129.131L35.9902 154.314C35.8458 154.681 35.5944 154.995 35.2687 155.215C34.9429 155.437 34.558 155.554 34.1644 155.553Z" fill="#3E3126"/>
<path d="M48.4437 143.283H47.7264C47.4862 143.19 47.2669 143.049 47.081 142.871C46.8952 142.691 46.7465 142.478 46.6435 142.242C46.5404 142.006 46.4851 141.75 46.4807 141.492C46.4764 141.235 46.523 140.979 46.618 140.739L52.4865 126.908C52.5791 126.668 52.7196 126.449 52.8996 126.265C53.0796 126.081 53.2953 125.936 53.5333 125.838C53.7713 125.74 54.0268 125.692 54.2841 125.697C54.5413 125.701 54.795 125.758 55.0296 125.864C55.2697 125.957 55.4884 126.098 55.6723 126.278C55.8561 126.458 56.0013 126.673 56.099 126.912C56.1967 127.15 56.2448 127.405 56.2403 127.663C56.2357 127.92 56.1788 128.174 56.0729 128.409L50.3347 142.043C50.1865 142.421 49.925 142.743 49.5863 142.964C49.2475 143.187 48.8484 143.298 48.4437 143.283Z" fill="#3E3126"/>
<path d="M63.6434 102.124C70.0942 92.8758 70.2483 81.8348 63.9875 77.4632C57.7266 73.0917 47.4218 77.0452 40.9709 86.2935C34.5202 95.5418 34.3661 106.583 40.6269 110.954C46.8878 115.326 57.1927 111.372 63.6434 102.124Z" fill="#FFEFAE"/>
<path d="M90.8322 76.2592C94.0473 71.6499 94.116 66.1412 90.9856 63.9556C87.8551 61.7698 82.7111 63.7346 79.496 68.3439C76.2809 72.9533 76.2122 78.4618 79.3427 80.6476C82.4731 82.8334 87.6171 80.8686 90.8322 76.2592Z" fill="#FFEFAE"/>
</g>
<defs>
<clipPath id="clip0_335_1175">
<rect width="251" height="428" fill="white"/>
</clipPath>
</defs>
</svg>
